<?xml version="1.0" encoding="UTF-8"?>
<svg width="28px" height="28px" viewBox="0 0 28 28" version="1.1" xmlns="http://www.w3.org/2000/svg" xmlns:xlink="http://www.w3.org/1999/xlink">
    <title>在贷余额</title>
    <defs>
        <linearGradient x1="50%" y1="0%" x2="50%" y2="99.1799094%" id="linearGradient-1">
            <stop stop-color="#269FD0" offset="0%"></stop>
            <stop stop-color="#0362BF" offset="100%"></stop>
        </linearGradient>
        <linearGradient x1="50%" y1="0%" x2="50%" y2="99.1799094%" id="linearGradient-2">
            <stop stop-color="#51E0FF" offset="0%"></stop>
            <stop stop-color="#017DFF" offset="100%"></stop>
        </linearGradient>
    </defs>
    <g id="页面-1" stroke="none" stroke-width="1" fill="none" fill-rule="evenodd">
        <g id="台州地方金融组织" transform="translate(-85.000000, -194.000000)">
            <g id="在贷余额" transform="translate(85.000000, 194.000000)">
                <rect id="矩形" x="0" y="0" width="28" height="28"></rect>
                <path d="M24.984028,17.6591161 C24.9390698,17.5337063 24.8018289,17.4698183 24.6740529,17.5147766 L22.8378645,18.1844174 L22.8378645,2.03968352 C22.8378645,0.910995539 21.9268689,0 20.798181,0 L5.20004437,0 C4.07135639,0 3.16036085,0.910995539 3.16036085,2.03968352 L3.16036085,18.1844174 L1.31943999,17.5171428 C1.29341155,17.5076779 1.26501688,17.5029455 1.23898844,17.5029455 C1.10648,17.5029455 1,17.6117917 1,17.7419339 L1,22.5284316 C1,22.627813 1.063888,22.7177294 1.15853689,22.7532227 L12.6702078,26.941436 C12.8831678,27.0195213 13.1150576,27.0195213 13.3280175,26.941436 L24.8420547,22.755589 C24.9390698,22.7200956 25.0005916,22.6301792 25.0005916,22.5307979 L25.0005916,17.7419339 C24.9982253,17.7135392 24.9934929,17.6875108 24.984028,17.6591161 Z M17.6700352,9.35094033 L14.5584531,15.098494 L14.5584531,16.098494 C14.6909615,16.098494 16.5247837,15.2073402 16.5247837,15.3374824 L16.5247837,16.1514629 C16.5247837,16.2839713 16.4159375,16.3904513 16.2857953,16.3904513 L13.9976584,16.3904513 L13.9976584,17.5593651 L16.2881615,17.5593651 C16.4206699,17.5593651 16.5271499,17.6682113 16.5271499,17.7983535 L16.5271253,18.7610116 C16.5271253,18.89352 16.4182791,19 16.2881368,19 L14,19 L14.0000246,20.7561312 C14.0000246,20.8886397 13.8911784,20.9951197 13.7610362,20.9951197 L12.2632176,20.9951197 C12.1307091,20.9951197 12.0242291,20.8862734 12.0242291,20.7561312 L12.0242045,19.0023662 L9.7431663,19.0023662 C9.61065786,19.0023662 9.50417786,18.89352 9.50417786,18.7633778 L9.50420251,17.8007197 C9.50420251,17.6682113 9.61304873,17.5617313 9.74319095,17.5617313 L12.0242291,17.5617313 L12.0242291,16.3928175 L9.74319095,16.3928175 C9.61068251,16.3928175 9.50420251,16.2839713 9.50420251,16.1538291 L9.50420251,15.3398487 C9.50420251,15.2073402 9.61304873,15.1008602 9.74319095,15.1008602 L11.4539696,16.1008602 L11.4539696,15.1008602 L8.33528875,9.35330655 C8.27140075,9.23972788 8.31399275,9.09302211 8.43230386,9.02913411 C8.4677972,9.00783811 8.50802297,8.99837322 8.54588253,8.99837322 L10.2164354,8.99837322 C10.3063518,8.99837322 10.3868034,9.05043011 10.4293954,9.13088166 L12.970718,14.1945971 L13.0700993,14.1945971 L15.611422,9.13088166 C15.6492815,9.05043011 15.7344655,8.99837322 15.8243819,8.99837322 L17.4594415,8.99837322 C17.5919499,8.99837322 17.6984299,9.10721944 17.7031624,9.23499544 C17.7007961,9.27522122 17.688965,9.31544699 17.6700352,9.35094033 Z" id="形状" fill="url(#linearGradient-1)" fill-rule="nonzero"></path>
                <path d="M24.984028,21.6591161 C24.9390698,21.5337063 24.8018289,21.4698183 24.6740529,21.5147766 L22.8378645,22.1844174 L22.8378645,6.03968352 C22.8378645,4.91099554 21.9268689,4 20.798181,4 L5.20004437,4 C4.07135639,4 3.16036085,4.91099554 3.16036085,6.03968352 L3.16036085,22.1844174 L1.31943999,21.5171428 C1.29341155,21.5076779 1.26501688,21.5029455 1.23898844,21.5029455 C1.10648,21.5029455 1,21.6117917 1,21.7419339 L1,23.5284316 C1,23.627813 1.063888,23.7177294 1.15853689,23.7532227 L12.6702078,27.941436 C12.8831678,28.0195213 13.1150576,28.0195213 13.3280175,27.941436 L24.8420547,23.755589 C24.9390698,23.7200956 25.0005916,23.6301792 25.0005916,23.5307979 L25.0005916,21.7419339 C24.9982253,21.7135392 24.9934929,21.6875108 24.984028,21.6591161 Z M17.6700352,10.3509403 L14.5584531,16.098494 L16.2857953,16.098494 C16.4183037,16.098494 16.5247837,16.2073402 16.5247837,16.3374824 L16.5247837,17.1514629 C16.5247837,17.2839713 16.4159375,17.3904513 16.2857953,17.3904513 L13.9976584,17.3904513 L13.9976584,18.5593651 L16.2881615,18.5593651 C16.4206699,18.5593651 16.5271499,18.6682113 16.5271499,18.7983535 L16.5271499,19.6123339 C16.5271499,19.7448424 16.4183037,19.8513224 16.2881615,19.8513224 L14.0000246,19.8513224 L14.0000246,21.7561312 C14.0000246,21.8886397 13.8911784,21.9951197 13.7610362,21.9951197 L12.2632176,21.9951197 C12.1307091,21.9951197 12.0242291,21.8862734 12.0242291,21.7561312 L12.0242291,19.8536886 L9.74319095,19.8536886 C9.61068251,19.8536886 9.50420251,19.7448424 9.50420251,19.6147002 L9.50420251,18.8007197 C9.50420251,18.6682113 9.61304873,18.5617313 9.74319095,18.5617313 L12.0242291,18.5617313 L12.0242291,17.3928175 L9.74319095,17.3928175 C9.61068251,17.3928175 9.50420251,17.2839713 9.50420251,17.1538291 L9.50420251,16.3398487 C9.50420251,16.2073402 9.61304873,16.1008602 9.74319095,16.1008602 L11.4539696,16.1008602 L8.33528875,10.3533065 C8.27140075,10.2397279 8.31399275,10.0930221 8.43230386,10.0291341 C8.4677972,10.0078381 8.50802297,9.99837322 8.54588253,9.99837322 L10.2164354,9.99837322 C10.3063518,9.99837322 10.3868034,10.0504301 10.4293954,10.1308817 L12.970718,15.1945971 L13.0700993,15.1945971 L15.611422,10.1308817 C15.6492815,10.0504301 15.7344655,9.99837322 15.8243819,9.99837322 L17.4594415,9.99837322 C17.5919499,9.99837322 17.6984299,10.1072194 17.7031624,10.2349954 C17.7007961,10.2752212 17.688965,10.315447 17.6700352,10.3509403 Z" id="形状备份-4" fill="url(#linearGradient-2)" fill-rule="nonzero"></path>
            </g>
        </g>
    </g>
</svg>