<?xml version="1.0" encoding="UTF-8"?>
<svg width="28px" height="29px" viewBox="0 0 28 29" version="1.1" xmlns="http://www.w3.org/2000/svg" xmlns:xlink="http://www.w3.org/1999/xlink">
    <title>在保户数</title>
    <defs>
        <linearGradient x1="50%" y1="0%" x2="50%" y2="99.1799094%" id="linearGradient-1">
            <stop stop-color="#269FD0" offset="0%"></stop>
            <stop stop-color="#0362BF" offset="100%"></stop>
        </linearGradient>
        <linearGradient x1="50%" y1="0%" x2="50%" y2="99.1799094%" id="linearGradient-2">
            <stop stop-color="#51E0FF" offset="0%"></stop>
            <stop stop-color="#017DFF" offset="100%"></stop>
        </linearGradient>
    </defs>
    <g id="页面-1" stroke="none" stroke-width="1" fill="none" fill-rule="evenodd">
        <g id="台州地方金融组织" transform="translate(-344.000000, -640.000000)">
            <g id="在保户数" transform="translate(344.000000, 640.000000)">
                <rect id="矩形" x="0" y="0" width="28" height="28"></rect>
                <g id="编组-26" transform="translate(3.000000, 0.000000)" fill-rule="nonzero">
                    <path d="M11.3045842,24.0423273 C9.82567551,21.7622604 7.54099437,20.7901976 5.20455279,20.0634451 C1.33972412,18.8609431 0.26920616,15.802589 0.638927066,12.1329403 C0.786559649,10.6669466 1.05238353,9.20784928 1.34990567,7.7632218 C1.55166279,6.78365917 1.10169423,6.21002766 0,6.04232727 C0,3.3756606 0.114278113,1.76956125 0.342834339,1.22402922 C0.685668677,0.405731172 1.37242545,-0.370713533 2.5769337,0.191328472 C5.32397287,1.47362784 8.08184564,1.51039179 10.8391416,0.166050116 C11.0916994,0.0430187977 11.5084159,0.0426426218 11.7609486,0.165849505 C14.5179938,1.51019115 17.2828131,1.48767135 20.0179905,0.181247229 C20.8772537,-0.229350369 21.209659,0.395737021 21.7380467,0.738975857 C22.5485588,1.26508148 22.6916523,1.84196949 22.1820227,2.71209134 C22.003673,3.01664205 22.0994864,4.00374121 22.4694632,5.67338884 C21.8083611,5.89215747 21.4763649,6.27569152 21.4734745,6.82399097 C21.4658768,8.26523596 21.5415287,9.43758447 21.7004301,10.3410365 C21.9862158,11.9652205 21.9893004,13.6904928 21.8010921,15.3340619 C21.5685965,17.3627245 20.376276,18.8555765 18.4237242,19.6406096 C17.8319401,19.8785972 17.221799,20.0715453 16.6338768,20.3181847 C14.6168252,21.1644827 12.5786581,21.9850259 11.3045842,24.0423273 Z M14.4391244,13.523176 C14.2470792,12.4734976 14.2470792,12.4734976 15.1683596,12.4209848 C16.9099576,12.3212256 17.4968014,11.7088276 17.5135784,9.96319214 C17.5197225,9.32330889 17.4894787,8.68224699 17.5187444,8.04374301 C17.5471826,7.42419778 17.2781989,7.22555712 16.6784651,7.2355882 C15.0622307,7.26324894 13.4451437,7.24429017 11.8283576,7.24429017 C9.111186,7.24408956 9.111186,7.24429017 9.111186,9.97976851 C9.111186,12.2724495 9.11246497,12.2562743 11.4536211,12.44684 C11.71137,12.4677799 11.9431384,12.807257 12.1868437,12.9990264 C11.9281419,13.1732163 11.6768129,13.4834528 11.4092837,13.4980731 C10.3460885,13.5561281 9.27775226,13.5219722 8.17062082,13.5219722 C8.17062082,14.0441406 8.17062082,14.4231403 8.17062082,14.8283963 C8.77048001,14.8649346 9.29711225,14.8970842 9.92187366,14.9352274 C9.82705477,16.1861796 9.32158814,17.1566375 8.61888518,18.0861935 C8.31170811,18.4926533 8.21631246,19.0590338 8.02476878,19.5527891 C10.5460583,18.8890068 11.418387,17.0535179 11.9781469,14.9055856 C12.1532647,15.293237 12.204674,15.637479 12.2080344,15.9821222 C12.220172,17.2282845 12.2357704,18.4750488 12.2110939,19.7206343 C12.1952949,20.5157236 12.6739535,20.5368892 13.2688724,20.541027 C13.8871386,20.5451649 14.3120556,20.469706 14.2877553,19.6855004 C14.2480322,18.4069126 14.2731601,17.1259674 14.2834921,15.846226 C14.2859497,15.5385474 14.3377101,15.2314204 14.3668254,14.9241431 C14.4691174,14.8864262 14.5714094,14.8486842 14.6738269,14.8109673 C15.0475853,17.0681131 16.0138552,18.8465251 18.1296629,19.6963591 C18.2555781,19.626643 18.3815687,19.5567263 18.5074588,19.4869601 C17.8107244,18.0197877 17.1139648,16.5526404 16.318048,14.8767211 C16.985266,14.8767211 17.2832646,14.8684204 17.5807365,14.8784765 C18.0475082,14.8942755 18.4595854,14.8901377 18.4641496,14.2324994 C18.4690648,13.5327556 18.0360728,13.5132201 17.5243618,13.519339 C16.4885013,13.5318529 15.4523649,13.523176 14.4391244,13.523176 Z M5.69316721,12.246795 C5.69316721,14.7417027 5.70808845,17.0950467 5.68418937,19.4477637 C5.67696699,20.1604977 5.79001737,20.5655281 6.66798856,20.5585228 C7.51060014,20.5517353 7.78442385,20.2811717 7.7721859,19.4521021 C7.73484517,16.9253708 7.71104639,14.3964827 7.78274363,11.8713563 C7.81266135,10.8173395 8.07670472,9.76668311 8.27273732,8.72151874 C8.38716698,8.11107675 8.57768246,7.51505442 8.73339008,6.91426736 C7.15444629,6.50389544 7.07181518,6.65576616 6.55802275,7.89601017 C6.0811698,9.04720318 5.30047509,10.0702239 4.68895476,11.1694559 C4.46616425,11.5697716 4.34559055,12.0267881 4.1783221,12.4580999 C4.27457041,12.5070767 4.37086888,12.5560535 4.46714226,12.6050303 C4.81176037,12.5043181 5.15637846,12.4035809 5.69316721,12.246795 Z M15.4971537,8.60285092 C15.5365759,8.90578985 15.5645124,9.03749806 15.5691518,9.17003384 C15.6290374,10.848135 15.5654403,10.9121082 13.8613336,10.9129107 C13.3896216,10.9133119 12.9179096,10.9134875 12.4462226,10.9129107 C11.149955,10.9115314 10.6495039,10.2058944 11.1022572,8.96366922 C11.1609139,8.80289592 11.4335841,8.62258706 11.6108836,8.61844925 C12.8830766,8.58900801 14.1561975,8.60285092 15.4971537,8.60285092 Z" id="形状" fill="url(#linearGradient-1)"></path>
                    <path d="M11.3045842,28.0423273 C9.82567551,25.7622604 7.54099437,24.7901976 5.20455279,24.0634451 C1.33972412,22.8609431 0.26920616,19.802589 0.638927066,16.1329403 C0.786559649,14.6669466 1.05238353,13.2078493 1.34990567,11.7632218 C1.74154452,9.86175338 1.05168136,8.20025372 0.353868545,6.51997085 C0.181158241,6.10403168 -0.341612034,5.62690289 0.342834339,5.22402922 C1.04796984,4.80869193 1.37242545,3.62928647 2.5769337,4.19132847 C5.32397287,5.47362784 8.08184564,5.51039179 10.8391416,4.16605012 C11.0916994,4.0430188 11.5084159,4.04264262 11.7609486,4.16584951 C14.5179938,5.51019115 17.2828131,5.48767135 20.0179905,4.18124723 C20.8772537,3.77064963 21.209659,4.39573702 21.7380467,4.73897586 C22.1755242,5.02294373 22.4185594,5.32170628 22.4694632,5.67338884 C22.5128685,5.97326652 22.4165774,6.31162166 22.1820227,6.71209134 C20.747326,9.16198454 21.2402538,11.7246523 21.7004301,14.3410365 C21.9862158,15.9652205 21.9893004,17.6904928 21.8010921,19.3340619 C21.5685965,21.3627245 20.376276,22.8555765 18.4237242,23.6406096 C17.8319401,23.8785972 17.221799,24.0715453 16.6338768,24.3181847 C14.6168252,25.1644827 12.5786581,25.9850259 11.3045842,28.0423273 Z M14.4391244,14.523176 C14.2470792,13.4734976 14.2470792,13.4734976 15.1683596,13.4209848 C16.9099576,13.3212256 17.4968014,12.7088276 17.5135784,10.9631921 C17.5197225,10.3233089 17.4894787,9.68224699 17.5187444,9.04374301 C17.5471826,8.42419778 17.2781989,8.22555712 16.6784651,8.2355882 C15.0622307,8.26324894 13.4451437,8.24429017 11.8283576,8.24429017 C9.111186,8.24408956 9.111186,8.24429017 9.111186,10.9797685 C9.111186,13.2724495 9.11246497,13.2562743 11.4536211,13.44684 C11.71137,13.4677799 11.9431384,13.807257 12.1868437,13.9990264 C11.9281419,14.1732163 11.6768129,14.4834528 11.4092837,14.4980731 C10.3460885,14.5561281 9.27775226,14.5219722 8.17062082,14.5219722 C8.17062082,15.0441406 8.17062082,15.4231403 8.17062082,15.8283963 C8.77048001,15.8649346 9.29711225,15.8970842 9.92187366,15.9352274 C9.82705477,17.1861796 9.32158814,18.1566375 8.61888518,19.0861935 C8.31170811,19.4926533 8.21631246,20.0590338 8.02476878,20.5527891 C10.5460583,19.8890068 11.418387,18.0535179 11.9781469,15.9055856 C12.1532647,16.293237 12.204674,16.637479 12.2080344,16.9821222 C12.220172,18.2282845 12.2357704,19.4750488 12.2110939,20.7206343 C12.1952949,21.5157236 12.6739535,21.5368892 13.2688724,21.541027 C13.8871386,21.5451649 14.3120556,21.469706 14.2877553,20.6855004 C14.2480322,19.4069126 14.2731601,18.1259674 14.2834921,16.846226 C14.2859497,16.5385474 14.3377101,16.2314204 14.3668254,15.9241431 C14.4691174,15.8864262 14.5714094,15.8486842 14.6738269,15.8109673 C15.0475853,18.0681131 16.0138552,19.8465251 18.1296629,20.6963591 C18.2555781,20.626643 18.3815687,20.5567263 18.5074588,20.4869601 C17.8107244,19.0197877 17.1139648,17.5526404 16.318048,15.8767211 C16.985266,15.8767211 17.2832646,15.8684204 17.5807365,15.8784765 C18.0475082,15.8942755 18.4595854,15.8901377 18.4641496,15.2324994 C18.4690648,14.5327556 18.0360728,14.5132201 17.5243618,14.519339 C16.4885013,14.5318529 15.4523649,14.523176 14.4391244,14.523176 Z M5.69316721,13.246795 C5.69316721,15.7417027 5.70808845,18.0950467 5.68418937,20.4477637 C5.67696699,21.1604977 5.79001737,21.5655281 6.66798856,21.5585228 C7.51060014,21.5517353 7.78442385,21.2811717 7.7721859,20.4521021 C7.73484517,17.9253708 7.71104639,15.3964827 7.78274363,12.8713563 C7.81266135,11.8173395 8.07670472,10.7666831 8.27273732,9.72151874 C8.38716698,9.11107675 8.57768246,8.51505442 8.73339008,7.91426736 C7.15444629,7.50389544 7.07181518,7.65576616 6.55802275,8.89601017 C6.0811698,10.0472032 5.30047509,11.0702239 4.68895476,12.1694559 C4.46616425,12.5697716 4.34559055,13.0267881 4.1783221,13.4580999 C4.27457041,13.5070767 4.37086888,13.5560535 4.46714226,13.6050303 C4.81176037,13.5043181 5.15637846,13.4035809 5.69316721,13.246795 Z M15.4971537,9.60285092 C15.5365759,9.90578985 15.5645124,10.0374981 15.5691518,10.1700338 C15.6290374,11.848135 15.5654403,11.9121082 13.8613336,11.9129107 C13.3896216,11.9133119 12.9179096,11.9134875 12.4462226,11.9129107 C11.149955,11.9115314 10.6495039,11.2058944 11.1022572,9.96366922 C11.1609139,9.80289592 11.4335841,9.62258706 11.6108836,9.61844925 C12.8830766,9.58900801 14.1561975,9.60285092 15.4971537,9.60285092 Z" id="形状备份-5" fill="url(#linearGradient-2)"></path>
                </g>
            </g>
        </g>
    </g>
</svg>