<?xml version="1.0" encoding="UTF-8"?>
<svg width="28px" height="28px" viewBox="0 0 28 28" version="1.1" xmlns="http://www.w3.org/2000/svg" xmlns:xlink="http://www.w3.org/1999/xlink">
    <title>在贷笔数</title>
    <defs>
        <linearGradient x1="50%" y1="0%" x2="50%" y2="99.1799094%" id="linearGradient-1">
            <stop stop-color="#269FD0" offset="0%"></stop>
            <stop stop-color="#0362BF" offset="100%"></stop>
        </linearGradient>
        <linearGradient x1="50%" y1="0%" x2="50%" y2="99.1799094%" id="linearGradient-2">
            <stop stop-color="#51E0FF" offset="0%"></stop>
            <stop stop-color="#017DFF" offset="100%"></stop>
        </linearGradient>
    </defs>
    <g id="页面-1" stroke="none" stroke-width="1" fill="none" fill-rule="evenodd">
        <g id="台州地方金融组织" transform="translate(-344.000000, -194.000000)">
            <g id="在贷笔数" transform="translate(344.000000, 194.000000)">
                <rect id="矩形" x="0" y="0" width="28" height="28"></rect>
                <g id="编组-16" transform="translate(2.000000, 0.000000)" fill-rule="nonzero">
                    <path d="M22.000213,0 L1.99978704,0 C0.899584721,0 0,0.899584721 0,1.99978704 L0,22.000213 C0,23.1004153 0.899584721,24 1.99978704,24 L22.000213,24 C23.1004153,24 24,23.1004153 24,22.000213 L24,1.99978704 C24,0.899584721 23.1004153,0 22.000213,0 Z M5.00010647,21.2145672 L5.00010647,10.9140667 L8.11670747,10.9140667 L8.11670747,21.2145672 L5.00010647,21.2145672 Z M13.569162,21.2145672 L10.4538388,21.2145672 L10.4538388,7.23522523 L13.569162,7.23522523 L13.569162,21.2145672 Z M15.9075711,21.2145672 L15.9075711,14.5929081 L19.0228942,14.5929081 L19.0228942,21.2145672 L15.9075711,21.2145672 Z" id="形状" fill="url(#linearGradient-1)"></path>
                    <path d="M22.000213,4 L1.99978704,4 C0.899584721,4 0,4.89958472 0,5.99978704 L0,26.000213 C0,27.1004153 0.899584721,28 1.99978704,28 L22.000213,28 C23.1004153,28 24,27.1004153 24,26.000213 L24,5.99978704 C24,4.89958472 23.1004153,4 22.000213,4 Z M8.11670747,23.2145672 L5.00010647,23.2145672 L5.00010647,12.9140667 L8.11670747,12.9140667 L8.11670747,23.2145672 L8.11670747,23.2145672 Z M13.569162,23.2145672 L10.4538388,23.2145672 L10.4538388,9.23522523 L13.569162,9.23522523 L13.569162,23.2145672 Z M19.0228942,23.2145672 L15.9075711,23.2145672 L15.9075711,16.5929081 L19.0228942,16.5929081 L19.0228942,23.2145672 L19.0228942,23.2145672 Z" id="形状" fill="url(#linearGradient-2)"></path>
                </g>
            </g>
        </g>
    </g>
</svg>