<?xml version="1.0" encoding="UTF-8"?>
<svg width="28px" height="28px" viewBox="0 0 28 28" version="1.1" xmlns="http://www.w3.org/2000/svg" xmlns:xlink="http://www.w3.org/1999/xlink">
    <title>在保余额</title>
    <defs>
        <linearGradient x1="50%" y1="0%" x2="50%" y2="99.1799094%" id="linearGradient-1">
            <stop stop-color="#269FD0" offset="0%"></stop>
            <stop stop-color="#0362BF" offset="100%"></stop>
        </linearGradient>
        <linearGradient x1="50%" y1="0%" x2="50%" y2="99.1799094%" id="linearGradient-2">
            <stop stop-color="#51E0FF" offset="0%"></stop>
            <stop stop-color="#017DFF" offset="100%"></stop>
        </linearGradient>
    </defs>
    <g id="页面-1" stroke="none" stroke-width="1" fill="none" fill-rule="evenodd">
        <g id="台州地方金融组织" transform="translate(-84.000000, -640.000000)">
            <g id="在保余额" transform="translate(84.000000, 640.000000)">
                <rect id="矩形" x="-7.07384768e-13" y="0" width="28.002759" height="28"></rect>
                <g id="编组-15" transform="translate(2.333333, 0.000000)" fill-rule="nonzero">
                    <path d="M12,0 C18.615,0 24,5.385 24,12 C24,18.615 18.615,24 12,24 C5.385,24 0,18.618 0,12 C0,5.382 5.385,0 12,0 Z M13.4085,6.582 C12.6305886,5.80415122 11.3694114,5.80415122 10.5915,6.582 L6.582,10.5915 C5.80415122,11.3694114 5.80415122,12.6305886 6.582,13.4085 L10.5915,17.418 C10.9644797,17.7926441 11.4713488,18.0032575 12,18.0032575 C12.5286512,18.0032575 13.0355203,17.7926441 13.4085,17.418 L17.418,13.4085 C18.1958488,12.6305886 18.1958488,11.3694114 17.418,10.5915 L13.4085,6.582 Z" id="形状" fill="url(#linearGradient-1)"></path>
                    <path d="M12,4 C18.615,4 24,9.385 24,16 C24,22.615 18.615,28 12,28 C5.385,28 0,22.618 0,16 C0,9.382 5.385,4 12,4 Z M13.4085,10.582 C12.6305886,9.80415122 11.3694114,9.80415122 10.5915,10.582 L6.582,14.5915 C5.80415122,15.3694114 5.80415122,16.6305886 6.582,17.4085 L10.5915,21.418 C10.9644797,21.7926441 11.4713488,22.0032575 12,22.0032575 C12.5286512,22.0032575 13.0355203,21.7926441 13.4085,21.418 L17.418,17.4085 C18.1958488,16.6305886 18.1958488,15.3694114 17.418,14.5915 L13.4085,10.582 Z" id="形状" fill="url(#linearGradient-2)"></path>
                </g>
            </g>
        </g>
    </g>
</svg>