<?xml version="1.0" standalone="no"?><!DOCTYPE svg PUBLIC "-//W3C//DTD SVG 1.1//EN" "http://www.w3.org/Graphics/SVG/1.1/DTD/svg11.dtd"><svg t="1649490039441" class="icon" viewBox="0 0 1024 1024" version="1.1" xmlns="http://www.w3.org/2000/svg" p-id="3792" width="280" height="280" xmlns:xlink="http://www.w3.org/1999/xlink"><defs><style type="text/css">@font-face { font-family: feedback-iconfont; src: url("//at.alicdn.com/t/font_1031158_u69w8yhxdu.woff2?t=1630033759944") format("woff2"), url("//at.alicdn.com/t/font_1031158_u69w8yhxdu.woff?t=1630033759944") format("woff"), url("//at.alicdn.com/t/font_1031158_u69w8yhxdu.ttf?t=1630033759944") format("truetype"); }
</style></defs><path d="M393.846154 551.384615a78.769231 78.769231 0 0 1 78.769231 78.769231v157.538462a78.769231 78.769231 0 0 1-78.769231 78.76923H236.307692a78.769231 78.769231 0 0 1-78.76923-78.76923v-157.538462a78.769231 78.769231 0 0 1 78.76923-78.769231h157.538462z m0 39.384616H236.307692a39.384615 39.384615 0 0 0-39.108923 34.776615L196.923077 630.153846v157.538462a39.384615 39.384615 0 0 0 34.776615 39.108923L236.307692 827.076923h157.538462a39.384615 39.384615 0 0 0 39.108923-34.776615L433.230769 787.692308v-157.538462a39.384615 39.384615 0 0 0-34.776615-39.108923L393.846154 590.769231z m472.615384 196.923077a19.692308 19.692308 0 0 1 3.544616 39.069538L866.461538 827.076923h-275.692307a19.692308 19.692308 0 0 1-3.544616-39.069538L590.769231 787.692308h275.692307z m0-196.923077a19.692308 19.692308 0 0 1 3.544616 39.069538L866.461538 630.153846h-275.692307a19.692308 19.692308 0 0 1-3.544616-39.069538L590.769231 590.769231h275.692307zM393.846154 157.538462a78.769231 78.769231 0 0 1 78.769231 78.76923v157.538462a78.769231 78.769231 0 0 1-78.769231 78.769231H236.307692a78.769231 78.769231 0 0 1-78.76923-78.769231V236.307692a78.769231 78.769231 0 0 1 78.76923-78.76923h157.538462z m0 39.384615H236.307692a39.384615 39.384615 0 0 0-39.108923 34.776615L196.923077 236.307692v157.538462a39.384615 39.384615 0 0 0 34.776615 39.108923L236.307692 433.230769h157.538462a39.384615 39.384615 0 0 0 39.108923-34.776615L433.230769 393.846154V236.307692a39.384615 39.384615 0 0 0-34.776615-39.108923L393.846154 196.923077z m472.615384 196.923077a19.692308 19.692308 0 0 1 3.544616 39.069538L866.461538 433.230769h-275.692307a19.692308 19.692308 0 0 1-3.544616-39.069538L590.769231 393.846154h275.692307zM409.127385 263.286154a19.692308 19.692308 0 0 1-0.315077 25.206154l-2.56 2.48123-96.84677 78.769231a19.692308 19.692308 0 0 1-22.370461 1.732923l-2.835692-2.048-60.691693-51.987692a19.692308 19.692308 0 0 1 22.724923-31.940923l2.875077 2.048L297.353846 328.822154l84.125539-68.411077a19.692308 19.692308 0 0 1 27.687384 2.875077zM866.461538 196.923077a19.692308 19.692308 0 0 1 3.544616 39.069538L866.461538 236.307692h-275.692307a19.692308 19.692308 0 0 1-3.544616-39.069538L590.769231 196.923077h275.692307z" fill="#1296db" p-id="3793"></path></svg>