<svg width="195" height="182" viewBox="0 0 195 182" fill="none" xmlns="http://www.w3.org/2000/svg">
<rect opacity="0.01" width="195" height="182" fill="#D8D8D8"/>
<path fill-rule="evenodd" clip-rule="evenodd" d="M145.881 88.9063H168V121.453H145.881V88.9063Z" fill="#F1FCFE"/>
<path fill-rule="evenodd" clip-rule="evenodd" d="M118.232 71.3125H140.351V122.828H118.232V71.3125Z" fill="#F1FCFE"/>
<path fill-rule="evenodd" clip-rule="evenodd" d="M85.5841 94.4063H107.703V121.453H85.5841V94.4063Z" fill="#F1FCFE"/>
<path fill-rule="evenodd" clip-rule="evenodd" d="M54.6545 66.7969H80.6477V122.828H54.6545V66.7969Z" fill="#F1FCFE"/>
<path fill-rule="evenodd" clip-rule="evenodd" d="M29.8174 76.8906H26.2867V88.4062V106.922V121.453H50.4059V88.4062H29.8174V76.8906Z" fill="#F1FCFE"/>
<path fill-rule="evenodd" clip-rule="evenodd" d="M96.9998 109.93C150.02 109.93 193 123.265 193 139.715C193 156.165 150.02 169.5 96.9998 169.5C43.9812 169.5 1.0002 156.165 1.0002 139.715C1.0002 123.265 43.9812 109.93 96.9998 109.93Z" fill="#F1FCFE"/>
<path fill-rule="evenodd" clip-rule="evenodd" d="M21.2035 34.9624C24.8618 34.9624 27.9233 37.4903 28.7003 40.8766C29.5891 40.5202 30.5606 40.3239 31.5785 40.3239C35.8154 40.3239 39.2499 43.725 39.2499 47.9206C39.2499 51.7378 36.4071 54.8974 32.7035 55.4364C32.4192 55.4896 32.1259 55.5175 31.8261 55.5175H31.5785H7.48664C4.87072 55.5175 2.75002 53.3968 2.75002 50.7809V49.8362C2.50669 49.1165 2.37488 48.3462 2.37488 47.5455C2.37488 43.5571 5.64538 40.3239 9.67952 40.3239C11.1215 40.3239 12.4658 40.7369 13.5981 41.4497C14.1443 37.7796 17.3411 34.9624 21.2035 34.9624Z" fill="#FF7200"/>
<path fill-rule="evenodd" clip-rule="evenodd" d="M21.2035 34.9624C24.8618 34.9624 27.9233 37.4903 28.7003 40.8766C29.5891 40.5202 30.5606 40.3239 31.5785 40.3239C35.8154 40.3239 39.2499 43.725 39.2499 47.9206C39.2499 51.7378 36.4071 54.8974 32.7035 55.4364C32.4192 55.4896 32.1259 55.5175 31.8261 55.5175H31.5785H7.48664C4.87072 55.5175 2.75002 53.3968 2.75002 50.7809V49.8362C2.50669 49.1165 2.37488 48.3462 2.37488 47.5455C2.37488 43.5571 5.64538 40.3239 9.67952 40.3239C11.1215 40.3239 12.4658 40.7369 13.5981 41.4497C14.1443 37.7796 17.3411 34.9624 21.2035 34.9624Z" fill="url(#paint0_linear_4855_8219)"/>
<path fill-rule="evenodd" clip-rule="evenodd" d="M149.407 11.5C152.541 11.5 155.166 13.6853 155.845 16.6176C156.613 16.3013 157.455 16.127 158.336 16.127C161.974 16.127 164.922 19.0942 164.922 22.7545C164.922 25.5986 163.142 28.0242 160.642 28.9646C160.128 29.2313 159.544 29.382 158.925 29.382H158.336H137.215C135.155 29.382 133.484 27.7118 133.484 25.6512V24.3424C133.291 23.7382 133.188 23.0944 133.188 22.4263C133.188 18.9472 136.007 16.127 139.485 16.127C140.732 16.127 141.894 16.4897 142.872 17.1155C143.356 13.9361 146.097 11.5 149.407 11.5Z" fill="#FF7200"/>
<path fill-rule="evenodd" clip-rule="evenodd" d="M149.407 11.5C152.541 11.5 155.166 13.6853 155.845 16.6176C156.613 16.3013 157.455 16.127 158.336 16.127C161.974 16.127 164.922 19.0942 164.922 22.7545C164.922 25.5986 163.142 28.0242 160.642 28.9646C160.128 29.2313 159.544 29.382 158.925 29.382H158.336H137.215C135.155 29.382 133.484 27.7118 133.484 25.6512V24.3424C133.291 23.7382 133.188 23.0944 133.188 22.4263C133.188 18.9472 136.007 16.127 139.485 16.127C140.732 16.127 141.894 16.4897 142.872 17.1155C143.356 13.9361 146.097 11.5 149.407 11.5Z" fill="url(#paint1_linear_4855_8219)"/>
<path fill-rule="evenodd" clip-rule="evenodd" d="M108.303 95.7111C108.303 95.7111 104.166 98.5254 107.788 101.712C108.737 102.547 109.075 103.569 109.006 104.843L110.974 105.017L111.638 103.061C111.638 103.061 115.179 96.103 108.303 95.7111Z" fill="#FCD4CD"/>
<path fill-rule="evenodd" clip-rule="evenodd" d="M105.972 94.9969C105.972 94.9969 106.453 97.8013 107.682 98.1716C108.911 98.542 111.663 98.4778 111.36 101.521L112.836 101.652C112.836 101.652 116.638 95.3883 107.939 95.1713C107.586 95.041 107.113 95.4596 105.972 94.9969Z" fill="#0E2F7C"/>
<path fill-rule="evenodd" clip-rule="evenodd" d="M117.646 143.406C117.646 143.406 119.334 146.244 115.411 145.313C113.671 144.9 108.979 141.922 117.646 143.406Z" fill="#142248"/>
<path fill-rule="evenodd" clip-rule="evenodd" d="M106.891 148.008C106.891 148.008 110.46 148.692 110.078 150.144C110.053 150.566 109.051 151.818 106.697 150.223C106.304 150.004 103.354 147.851 106.891 148.008Z" fill="#142248"/>
<path fill-rule="evenodd" clip-rule="evenodd" d="M116.124 119.126C116.124 119.126 118.113 137.781 116.932 144.391C116.932 144.391 116.213 144.88 114.964 144.216C115.005 142.586 112.424 131.14 111.737 129.822C111.524 130.022 109.037 149.737 109.037 149.737C109.037 149.737 108.07 151.206 107.113 149.063C106.155 146.92 104.958 122.167 104.958 122.167L116.124 119.126Z" fill="#555C6D"/>
<path fill-rule="evenodd" clip-rule="evenodd" d="M104.676 123.408C104.676 123.408 104.949 127.936 103.688 127.925C102.608 127.917 102.888 124.706 103.195 123.408H104.676Z" fill="#FCD4CD"/>
<path fill-rule="evenodd" clip-rule="evenodd" d="M102.5 115.5L103 124L105 123.5V115L102.5 115.5Z" fill="#FCD4CD"/>
<path fill-rule="evenodd" clip-rule="evenodd" d="M112.128 102.144C112.128 102.144 111.197 104.214 108.063 103.295C107.536 103.242 102.247 103.754 102.02 115.905C102.875 115.941 105 116 105 116C105 116 104.431 127.164 105.407 122.711C105.407 122.711 110.229 124.961 116.659 118.669L116.959 115.169C116.959 115.169 120.341 113.875 119.977 108.886C119.939 108.252 116.749 101.814 112.128 102.144Z" fill="#255BDA"/>
<path fill-rule="evenodd" clip-rule="evenodd" d="M75.7695 49.6935C75.7676 48.9934 75.2687 48.707 74.6595 49.0586L70.104 51.6888L70.0992 49.9735C70.0971 49.2738 69.5963 48.9882 68.9871 49.3399L60.7093 54.119C60.1005 54.4707 59.6027 55.3325 59.6048 56.0323L59.6096 57.7477L55.0318 60.3907C54.423 60.7424 53.9252 61.6042 53.9273 62.3039L53.9436 68.1239C53.9457 68.8239 54.4465 69.1092 55.0557 68.7575L74.6833 57.4255C75.2925 57.0738 75.7879 56.2132 75.7858 55.5134L75.7695 49.6935Z" fill="#B4DEFF"/>
<mask id="mask0_4855_8219" style="mask-type:luminance" maskUnits="userSpaceOnUse" x="44" y="140" width="5" height="4">
<path fill-rule="evenodd" clip-rule="evenodd" d="M44.7753 141.589L48.0359 143.484C47.8354 143.368 47.7104 143.12 47.7092 142.769L44.4483 140.874C44.4492 141.225 44.5741 141.473 44.7753 141.589Z" fill="white"/>
</mask>
<g mask="url(#mask0_4855_8219)">
<path fill-rule="evenodd" clip-rule="evenodd" d="M48.0358 143.484L44.7752 141.589C44.5741 141.473 44.4492 141.225 44.4482 140.874L47.7092 142.769C47.7101 143.12 47.8353 143.368 48.0358 143.484Z" fill="#91CEFF"/>
</g>
<mask id="mask1_4855_8219" style="mask-type:luminance" maskUnits="userSpaceOnUse" x="86" y="45" width="5" height="3">
<path fill-rule="evenodd" clip-rule="evenodd" d="M87.0416 45.0586C86.8929 45.0601 86.7257 45.1092 86.5496 45.211L89.8105 47.1061C90.1205 46.9272 90.4031 46.9111 90.6066 47.0296L87.3463 45.1348C87.2618 45.0857 87.164 45.0595 87.0567 45.0586" fill="white"/>
</mask>
<g mask="url(#mask1_4855_8219)">
<path fill-rule="evenodd" clip-rule="evenodd" d="M89.8104 47.1062L86.5498 45.2111C86.6025 45.1809 86.6544 45.155 86.705 45.134L89.9659 47.0291C89.915 47.0501 89.8632 47.0757 89.8104 47.1062Z" fill="#E4F3FE"/>
</g>
<mask id="mask2_4855_8219" style="mask-type:luminance" maskUnits="userSpaceOnUse" x="86" y="45" width="5" height="3">
<path fill-rule="evenodd" clip-rule="evenodd" d="M87.0416 45.0586C86.8929 45.0601 86.7257 45.1092 86.5496 45.211L89.8105 47.1061C90.1205 46.9272 90.4031 46.9111 90.6066 47.0296L87.3463 45.1348C87.2618 45.0857 87.164 45.0595 87.0567 45.0586" fill="white"/>
</mask>
<g mask="url(#mask2_4855_8219)">
<path fill-rule="evenodd" clip-rule="evenodd" d="M90.0972 46.9837L86.8362 45.0886C86.8696 45.0797 86.9026 45.0726 86.9346 45.0676L90.1952 46.9627C90.1635 46.9677 90.1305 46.9745 90.0972 46.9837Z" fill="#E4F3FE"/>
</g>
<mask id="mask3_4855_8219" style="mask-type:luminance" maskUnits="userSpaceOnUse" x="86" y="45" width="5" height="3">
<path fill-rule="evenodd" clip-rule="evenodd" d="M87.0416 45.0586C86.8929 45.0601 86.7257 45.1092 86.5496 45.211L89.8105 47.1061C90.1205 46.9272 90.4031 46.9111 90.6066 47.0296L87.3463 45.1348C87.2618 45.0857 87.164 45.0595 87.0567 45.0586" fill="white"/>
</mask>
<g mask="url(#mask3_4855_8219)">
<path fill-rule="evenodd" clip-rule="evenodd" d="M90.1953 46.9625L86.9347 45.0674C86.9631 45.0631 86.9905 45.0603 87.018 45.0591L90.2789 46.9542C90.2517 46.9554 90.2237 46.9582 90.1953 46.9625Z" fill="#E4F3FE"/>
</g>
<mask id="mask4_4855_8219" style="mask-type:luminance" maskUnits="userSpaceOnUse" x="86" y="45" width="5" height="3">
<path fill-rule="evenodd" clip-rule="evenodd" d="M87.0416 45.0586C86.8929 45.0601 86.7257 45.1092 86.5496 45.211L89.8105 47.1061C90.1205 46.9272 90.4031 46.9111 90.6066 47.0296L87.3463 45.1348C87.2618 45.0857 87.164 45.0595 87.0567 45.0586" fill="white"/>
</mask>
<g mask="url(#mask4_4855_8219)">
<path fill-rule="evenodd" clip-rule="evenodd" d="M90.279 46.9542L87.0181 45.0591C87.0434 45.0582 87.0681 45.0585 87.0925 45.0597L90.3531 46.9549C90.329 46.9533 90.3043 46.9533 90.279 46.9542Z" fill="#E4F3FE"/>
</g>
<mask id="mask5_4855_8219" style="mask-type:luminance" maskUnits="userSpaceOnUse" x="86" y="45" width="5" height="3">
<path fill-rule="evenodd" clip-rule="evenodd" d="M87.0416 45.0586C86.8929 45.0601 86.7257 45.1092 86.5496 45.211L89.8105 47.1061C90.1205 46.9272 90.4031 46.9111 90.6066 47.0296L87.3463 45.1348C87.2618 45.0857 87.164 45.0595 87.0567 45.0586" fill="white"/>
</mask>
<g mask="url(#mask5_4855_8219)">
<path fill-rule="evenodd" clip-rule="evenodd" d="M90.3532 46.9549L87.0926 45.0598C87.1157 45.0614 87.1382 45.0638 87.1604 45.0678L90.4214 46.9626C90.3992 46.9589 90.3763 46.9562 90.3532 46.9549Z" fill="#E4F3FE"/>
</g>
<mask id="mask6_4855_8219" style="mask-type:luminance" maskUnits="userSpaceOnUse" x="86" y="45" width="5" height="3">
<path fill-rule="evenodd" clip-rule="evenodd" d="M87.0416 45.0586C86.8929 45.0601 86.7257 45.1092 86.5496 45.211L89.8105 47.1061C90.1205 46.9272 90.4031 46.9111 90.6066 47.0296L87.3463 45.1348C87.2618 45.0857 87.164 45.0595 87.0567 45.0586" fill="white"/>
</mask>
<g mask="url(#mask6_4855_8219)">
<path fill-rule="evenodd" clip-rule="evenodd" d="M90.4212 46.9627L87.1606 45.0676C87.1819 45.0716 87.2029 45.0763 87.2239 45.0824L90.4845 46.9772C90.4641 46.9714 90.4428 46.9664 90.4212 46.9627Z" fill="#E4F3FE"/>
</g>
<mask id="mask7_4855_8219" style="mask-type:luminance" maskUnits="userSpaceOnUse" x="86" y="45" width="5" height="3">
<path fill-rule="evenodd" clip-rule="evenodd" d="M87.0416 45.0586C86.8929 45.0601 86.7257 45.1092 86.5496 45.211L89.8105 47.1061C90.1205 46.9272 90.4031 46.9111 90.6066 47.0296L87.3463 45.1348C87.2618 45.0857 87.164 45.0595 87.0567 45.0586" fill="white"/>
</mask>
<g mask="url(#mask7_4855_8219)">
<path fill-rule="evenodd" clip-rule="evenodd" d="M90.4845 46.9774L87.2239 45.0823C87.2439 45.0881 87.264 45.0952 87.2831 45.1032L90.544 46.9984C90.5249 46.9903 90.5048 46.9832 90.4845 46.9774Z" fill="#E4F3FE"/>
</g>
<mask id="mask8_4855_8219" style="mask-type:luminance" maskUnits="userSpaceOnUse" x="86" y="45" width="5" height="3">
<path fill-rule="evenodd" clip-rule="evenodd" d="M87.0416 45.0586C86.8929 45.0601 86.7257 45.1092 86.5496 45.211L89.8105 47.1061C90.1205 46.9272 90.4031 46.9111 90.6066 47.0296L87.3463 45.1348C87.2618 45.0857 87.164 45.0595 87.0567 45.0586" fill="white"/>
</mask>
<g mask="url(#mask8_4855_8219)">
<path fill-rule="evenodd" clip-rule="evenodd" d="M90.5442 46.9984L87.2833 45.1033C87.3027 45.1113 87.3218 45.1209 87.3397 45.131L90.6009 47.0261C90.5824 47.0156 90.5636 47.0064 90.5442 46.9984Z" fill="#E4F3FE"/>
</g>
<mask id="mask9_4855_8219" style="mask-type:luminance" maskUnits="userSpaceOnUse" x="86" y="45" width="5" height="3">
<path fill-rule="evenodd" clip-rule="evenodd" d="M87.0416 45.0586C86.8929 45.0601 86.7257 45.1092 86.5496 45.211L89.8105 47.1061C90.1205 46.9272 90.4031 46.9111 90.6066 47.0296L87.3463 45.1348C87.2618 45.0857 87.164 45.0595 87.0567 45.0586" fill="white"/>
</mask>
<g mask="url(#mask9_4855_8219)">
<path fill-rule="evenodd" clip-rule="evenodd" d="M89.9658 47.0288L86.7049 45.1337C86.7493 45.1152 86.7934 45.1001 86.8363 45.0884L90.0972 46.9838C90.054 46.9952 90.0105 47.0103 89.9658 47.0288Z" fill="#E4F3FE"/>
</g>
<mask id="mask10_4855_8219" style="mask-type:luminance" maskUnits="userSpaceOnUse" x="86" y="45" width="5" height="3">
<path fill-rule="evenodd" clip-rule="evenodd" d="M87.0416 45.0586C86.8929 45.0601 86.7257 45.1092 86.5496 45.211L89.8105 47.1061C90.1205 46.9272 90.4031 46.9111 90.6066 47.0296L87.3463 45.1348C87.2618 45.0857 87.164 45.0595 87.0567 45.0586" fill="white"/>
</mask>
<g mask="url(#mask10_4855_8219)">
<path fill-rule="evenodd" clip-rule="evenodd" d="M90.6008 47.0262L87.3398 45.1311L87.346 45.1348L90.6072 47.0296C90.6051 47.0284 90.6029 47.0271 90.6008 47.0262Z" fill="#E4F3FE"/>
</g>
<path fill-rule="evenodd" clip-rule="evenodd" d="M44.4485 140.874L47.7091 142.769L47.5107 72.8175L44.2501 70.9224L44.4485 140.874Z" fill="url(#paint2_linear_4855_8219)"/>
<path fill-rule="evenodd" clip-rule="evenodd" d="M48.6277 70.8831L45.3668 68.988L86.5496 45.2109L89.8105 47.1064L48.6277 70.8831Z" fill="url(#paint3_linear_4855_8219)"/>
<path fill-rule="evenodd" clip-rule="evenodd" d="M89.8104 47.1062C90.427 46.7502 90.9328 47.0386 90.935 47.7468L91.133 117.698C91.1352 118.406 90.6324 119.275 90.0161 119.63L48.8334 143.407C48.2168 143.763 47.7112 143.477 47.7094 142.769L47.5107 72.8175C47.5089 72.1093 48.0114 71.2389 48.6276 70.8829L89.8104 47.1062Z" fill="url(#paint4_linear_4855_8219)"/>
<path fill-rule="evenodd" clip-rule="evenodd" d="M87.9759 50.4224C88.5344 50.1 88.9925 50.3612 88.9945 51.0026L89.1738 114.36C89.1758 115.001 88.7204 115.788 88.1622 116.11L50.8616 137.646C50.3031 137.968 49.8452 137.709 49.8436 137.067L49.6636 73.71C49.662 73.0686 50.1171 72.2802 50.6752 71.9578L87.9759 50.4224Z" fill="#EDF7FF"/>
<path opacity="0.5" fill-rule="evenodd" clip-rule="evenodd" d="M83.248 70.5434C83.2456 68.8213 81.4125 67.7197 79.8907 68.5258L56.4683 80.9332C55.7189 81.3301 55.2507 82.1092 55.2519 82.9572C55.2544 84.6793 57.0874 85.7808 58.6092 84.9747L82.0316 72.5674C82.781 72.1705 83.2492 71.3914 83.248 70.5434Z" fill="#BADEFF"/>
<path opacity="0.5" fill-rule="evenodd" clip-rule="evenodd" d="M83.2481 82.6898C83.2456 80.9251 81.3459 79.8144 79.8069 80.6779L56.4318 93.7926C55.702 94.202 55.2507 94.9741 55.2518 95.8109C55.2543 97.5755 57.154 98.6861 58.693 97.8227L82.0681 84.7081C82.7978 84.2986 83.2492 83.5266 83.2481 82.6898Z" fill="#BADEFF"/>
<path opacity="0.5" fill-rule="evenodd" clip-rule="evenodd" d="M72.9442 96.9507C74.4315 96.1343 76.2499 97.2105 76.2499 98.9073C76.2499 99.7219 75.8061 100.472 75.0919 100.864L58.5573 109.939C57.0713 110.755 55.2544 109.681 55.2519 107.986C55.2507 107.17 55.6946 106.419 56.4097 106.026L72.9442 96.9507Z" fill="#BADEFF"/>
<path fill-rule="evenodd" clip-rule="evenodd" d="M78.7695 50.1935C78.7676 49.4934 78.2687 49.207 77.6595 49.5586L73.104 52.1888L73.0992 50.4735C73.0971 49.7738 72.5963 49.4882 71.9871 49.8399L63.7093 54.619C63.1005 54.9707 62.6027 55.8325 62.6048 56.5323L62.6096 58.2477L58.0318 60.8907C57.423 61.2424 56.9252 62.1042 56.9273 62.8039L56.9436 68.6239C56.9457 69.3239 57.4465 69.6092 58.0557 69.2575L77.6833 57.9255C78.2925 57.5738 78.7879 56.7132 78.7858 56.0134L78.7695 50.1935Z" fill="url(#paint5_linear_4855_8219)"/>
<mask id="mask11_4855_8219" style="mask-type:luminance" maskUnits="userSpaceOnUse" x="44" y="68" width="5" height="5">
<path fill-rule="evenodd" clip-rule="evenodd" d="M44.2503 70.9226L47.5105 72.8174C47.509 72.1095 48.0115 71.2388 48.6277 70.8828L45.3668 68.988C44.7506 69.344 44.2481 70.2141 44.2503 70.9226Z" fill="white"/>
</mask>
<g mask="url(#mask11_4855_8219)">
<path fill-rule="evenodd" clip-rule="evenodd" d="M47.5108 72.8176L44.2502 70.9225C44.2499 70.8516 44.2545 70.7788 44.2644 70.7051L47.525 72.6002C47.5157 72.6739 47.5108 72.7467 47.5108 72.8176Z" fill="#B7DFFF"/>
</g>
<mask id="mask12_4855_8219" style="mask-type:luminance" maskUnits="userSpaceOnUse" x="44" y="68" width="5" height="5">
<path fill-rule="evenodd" clip-rule="evenodd" d="M44.2503 70.9226L47.5105 72.8174C47.509 72.1095 48.0115 71.2388 48.6277 70.8828L45.3668 68.988C44.7506 69.344 44.2481 70.2141 44.2503 70.9226Z" fill="white"/>
</mask>
<g mask="url(#mask12_4855_8219)">
<path fill-rule="evenodd" clip-rule="evenodd" d="M47.5517 72.4458L44.2908 70.5507C44.2998 70.5081 44.3103 70.4652 44.322 70.4224L47.5832 72.3175C47.5712 72.3603 47.5607 72.4032 47.5517 72.4458Z" fill="#B7DFFF"/>
</g>
<mask id="mask13_4855_8219" style="mask-type:luminance" maskUnits="userSpaceOnUse" x="44" y="68" width="5" height="5">
<path fill-rule="evenodd" clip-rule="evenodd" d="M44.2503 70.9226L47.5105 72.8174C47.509 72.1095 48.0115 71.2388 48.6277 70.8828L45.3668 68.988C44.7506 69.344 44.2481 70.2141 44.2503 70.9226Z" fill="white"/>
</mask>
<g mask="url(#mask13_4855_8219)">
<path fill-rule="evenodd" clip-rule="evenodd" d="M47.5831 72.3173L44.3222 70.4222C44.3327 70.3843 44.3444 70.346 44.3571 70.3081L47.618 72.2029C47.6053 72.2411 47.5936 72.2791 47.5831 72.3173Z" fill="#B7DFFF"/>
</g>
<mask id="mask14_4855_8219" style="mask-type:luminance" maskUnits="userSpaceOnUse" x="44" y="68" width="5" height="5">
<path fill-rule="evenodd" clip-rule="evenodd" d="M44.2503 70.9226L47.5105 72.8174C47.509 72.1095 48.0115 71.2388 48.6277 70.8828L45.3668 68.988C44.7506 69.344 44.2481 70.2141 44.2503 70.9226Z" fill="white"/>
</mask>
<g mask="url(#mask14_4855_8219)">
<path fill-rule="evenodd" clip-rule="evenodd" d="M47.618 72.2031L44.3571 70.308C44.3688 70.2725 44.3815 70.2374 44.3951 70.2019L47.656 72.097C47.6424 72.1325 47.6298 72.1676 47.618 72.2031Z" fill="#B7DFFF"/>
</g>
<mask id="mask15_4855_8219" style="mask-type:luminance" maskUnits="userSpaceOnUse" x="44" y="68" width="5" height="5">
<path fill-rule="evenodd" clip-rule="evenodd" d="M44.2503 70.9226L47.5105 72.8174C47.509 72.1095 48.0115 71.2388 48.6277 70.8828L45.3668 68.988C44.7506 69.344 44.2481 70.2141 44.2503 70.9226Z" fill="white"/>
</mask>
<g mask="url(#mask15_4855_8219)">
<path fill-rule="evenodd" clip-rule="evenodd" d="M47.656 72.097L44.3951 70.2019C44.4083 70.1683 44.4219 70.1344 44.4364 70.1011L47.6973 71.9959C47.6828 72.0295 47.6689 72.0631 47.656 72.097Z" fill="#B7DFFF"/>
</g>
<mask id="mask16_4855_8219" style="mask-type:luminance" maskUnits="userSpaceOnUse" x="44" y="68" width="5" height="5">
<path fill-rule="evenodd" clip-rule="evenodd" d="M44.2503 70.9226L47.5105 72.8174C47.509 72.1095 48.0115 71.2388 48.6277 70.8828L45.3668 68.988C44.7506 69.344 44.2481 70.2141 44.2503 70.9226Z" fill="white"/>
</mask>
<g mask="url(#mask16_4855_8219)">
<path fill-rule="evenodd" clip-rule="evenodd" d="M47.6972 71.9961L44.4366 70.101C44.4508 70.0683 44.4653 70.0359 44.4811 70.0032L47.7423 71.8983C47.7266 71.9307 47.7114 71.9634 47.6972 71.9961Z" fill="#B7DFFF"/>
</g>
<mask id="mask17_4855_8219" style="mask-type:luminance" maskUnits="userSpaceOnUse" x="44" y="68" width="5" height="5">
<path fill-rule="evenodd" clip-rule="evenodd" d="M44.2503 70.9226L47.5105 72.8174C47.509 72.1095 48.0115 71.2388 48.6277 70.8828L45.3668 68.988C44.7506 69.344 44.2481 70.2141 44.2503 70.9226Z" fill="white"/>
</mask>
<g mask="url(#mask17_4855_8219)">
<path fill-rule="evenodd" clip-rule="evenodd" d="M47.7421 71.8983L44.4812 70.0032C44.4969 69.9711 44.513 69.939 44.5299 69.9072L47.7905 71.8023C47.7739 71.8341 47.7575 71.8662 47.7421 71.8983Z" fill="#B7DFFF"/>
</g>
<mask id="mask18_4855_8219" style="mask-type:luminance" maskUnits="userSpaceOnUse" x="44" y="68" width="5" height="5">
<path fill-rule="evenodd" clip-rule="evenodd" d="M44.2503 70.9226L47.5105 72.8174C47.509 72.1095 48.0115 71.2388 48.6277 70.8828L45.3668 68.988C44.7506 69.344 44.2481 70.2141 44.2503 70.9226Z" fill="white"/>
</mask>
<g mask="url(#mask18_4855_8219)">
<path fill-rule="evenodd" clip-rule="evenodd" d="M47.7906 71.8024L44.53 69.9073C44.5467 69.8752 44.5646 69.8437 44.5828 69.8123L47.8437 71.7074C47.8252 71.7385 47.8079 71.7703 47.7906 71.8024Z" fill="#B7DFFF"/>
</g>
<mask id="mask19_4855_8219" style="mask-type:luminance" maskUnits="userSpaceOnUse" x="44" y="68" width="5" height="5">
<path fill-rule="evenodd" clip-rule="evenodd" d="M44.2503 70.9226L47.5105 72.8174C47.509 72.1095 48.0115 71.2388 48.6277 70.8828L45.3668 68.988C44.7506 69.344 44.2481 70.2141 44.2503 70.9226Z" fill="white"/>
</mask>
<g mask="url(#mask19_4855_8219)">
<path fill-rule="evenodd" clip-rule="evenodd" d="M47.8436 71.7075L44.5827 69.8124C44.6015 69.7803 44.621 69.7482 44.641 69.717L47.9019 71.6118C47.8819 71.6433 47.8624 71.6754 47.8436 71.7075Z" fill="#B7DFFF"/>
</g>
<mask id="mask20_4855_8219" style="mask-type:luminance" maskUnits="userSpaceOnUse" x="44" y="68" width="5" height="5">
<path fill-rule="evenodd" clip-rule="evenodd" d="M44.2503 70.9226L47.5105 72.8174C47.509 72.1095 48.0115 71.2388 48.6277 70.8828L45.3668 68.988C44.7506 69.344 44.2481 70.2141 44.2503 70.9226Z" fill="white"/>
</mask>
<g mask="url(#mask20_4855_8219)">
<path fill-rule="evenodd" clip-rule="evenodd" d="M47.9021 71.6119L44.6412 69.7168C44.6621 69.6841 44.6837 69.6514 44.7066 69.6196L47.9672 71.5144C47.945 71.5465 47.9231 71.5789 47.9021 71.6119Z" fill="#B7DFFF"/>
</g>
<mask id="mask21_4855_8219" style="mask-type:luminance" maskUnits="userSpaceOnUse" x="44" y="68" width="5" height="5">
<path fill-rule="evenodd" clip-rule="evenodd" d="M44.2503 70.9226L47.5105 72.8174C47.509 72.1095 48.0115 71.2388 48.6277 70.8828L45.3668 68.988C44.7506 69.344 44.2481 70.2141 44.2503 70.9226Z" fill="white"/>
</mask>
<g mask="url(#mask21_4855_8219)">
<path fill-rule="evenodd" clip-rule="evenodd" d="M47.9671 71.5145L44.7065 69.6194C44.7306 69.5848 44.7556 69.5509 44.7815 69.5176L48.0421 71.4127C48.0165 71.446 47.9915 71.4799 47.9671 71.5145Z" fill="#B7DFFF"/>
</g>
<mask id="mask22_4855_8219" style="mask-type:luminance" maskUnits="userSpaceOnUse" x="44" y="68" width="5" height="5">
<path fill-rule="evenodd" clip-rule="evenodd" d="M44.2503 70.9226L47.5105 72.8174C47.509 72.1095 48.0115 71.2388 48.6277 70.8828L45.3668 68.988C44.7506 69.344 44.2481 70.2141 44.2503 70.9226Z" fill="white"/>
</mask>
<g mask="url(#mask22_4855_8219)">
<path fill-rule="evenodd" clip-rule="evenodd" d="M48.0421 71.4126L44.7815 69.5175C44.8108 69.4793 44.8413 69.4423 44.8728 69.4065L48.1334 71.3016C48.1022 71.3374 48.0717 71.3744 48.0421 71.4126Z" fill="#B7DFFF"/>
</g>
<mask id="mask23_4855_8219" style="mask-type:luminance" maskUnits="userSpaceOnUse" x="44" y="68" width="5" height="5">
<path fill-rule="evenodd" clip-rule="evenodd" d="M44.2503 70.9226L47.5105 72.8174C47.509 72.1095 48.0115 71.2388 48.6277 70.8828L45.3668 68.988C44.7506 69.344 44.2481 70.2141 44.2503 70.9226Z" fill="white"/>
</mask>
<g mask="url(#mask23_4855_8219)">
<path fill-rule="evenodd" clip-rule="evenodd" d="M48.1334 71.3016L44.8728 69.4065C44.9123 69.3612 44.9527 69.3177 44.9949 69.2764L48.2556 71.1715C48.2139 71.2125 48.1732 71.2563 48.1334 71.3016Z" fill="#B7DFFF"/>
</g>
<mask id="mask24_4855_8219" style="mask-type:luminance" maskUnits="userSpaceOnUse" x="44" y="68" width="5" height="5">
<path fill-rule="evenodd" clip-rule="evenodd" d="M44.2503 70.9226L47.5105 72.8174C47.509 72.1095 48.0115 71.2388 48.6277 70.8828L45.3668 68.988C44.7506 69.344 44.2481 70.2141 44.2503 70.9226Z" fill="white"/>
</mask>
<g mask="url(#mask24_4855_8219)">
<path fill-rule="evenodd" clip-rule="evenodd" d="M47.5249 72.6004L44.2643 70.7053C44.2708 70.6541 44.2798 70.6026 44.2909 70.5508L47.5518 72.4459C47.5407 72.4977 47.5314 72.5492 47.5249 72.6004Z" fill="#B7DFFF"/>
</g>
<mask id="mask25_4855_8219" style="mask-type:luminance" maskUnits="userSpaceOnUse" x="44" y="68" width="5" height="5">
<path fill-rule="evenodd" clip-rule="evenodd" d="M44.2503 70.9226L47.5105 72.8174C47.509 72.1095 48.0115 71.2388 48.6277 70.8828L45.3668 68.988C44.7506 69.344 44.2481 70.2141 44.2503 70.9226Z" fill="white"/>
</mask>
<g mask="url(#mask25_4855_8219)">
<path fill-rule="evenodd" clip-rule="evenodd" d="M48.2557 71.1713L44.9951 69.2762C45.1114 69.1614 45.2366 69.0634 45.3668 68.9878L48.6277 70.8829C48.4975 70.9582 48.3723 71.0562 48.2557 71.1713Z" fill="#B7DFFF"/>
</g>
<defs>
<linearGradient id="paint0_linear_4855_8219" x1="39.2499" y1="55.5175" x2="39.2499" y2="34.9624" gradientUnits="userSpaceOnUse">
<stop stop-color="white"/>
<stop offset="1" stop-color="#E9FBFD"/>
</linearGradient>
<linearGradient id="paint1_linear_4855_8219" x1="164.922" y1="29.382" x2="164.922" y2="11.5" gradientUnits="userSpaceOnUse">
<stop stop-color="white"/>
<stop offset="1" stop-color="#E9FBFD"/>
</linearGradient>
<linearGradient id="paint2_linear_4855_8219" x1="44.682" y1="88.8623" x2="44.682" y2="142.769" gradientUnits="userSpaceOnUse">
<stop stop-color="#C1E1FF"/>
<stop offset="1" stop-color="#95CDFF"/>
</linearGradient>
<linearGradient id="paint3_linear_4855_8219" x1="69.2377" y1="80.2933" x2="88.4387" y2="45.4857" gradientUnits="userSpaceOnUse">
<stop stop-color="#C1E1FF"/>
<stop offset="1" stop-color="#E5F3FE"/>
<stop offset="1" stop-color="#E5F3FE"/>
</linearGradient>
<linearGradient id="paint4_linear_4855_8219" x1="60.2286" y1="71.3573" x2="24.1219" y2="87.833" gradientUnits="userSpaceOnUse">
<stop stop-color="#D4ECFF"/>
<stop offset="1" stop-color="#AFDBFF"/>
</linearGradient>
<linearGradient id="paint5_linear_4855_8219" x1="62.9898" y1="56.774" x2="66.0925" y2="65.8608" gradientUnits="userSpaceOnUse">
<stop stop-color="#D2EAFF"/>
<stop offset="1" stop-color="#ACD6FD"/>
</linearGradient>
</defs>
</svg>
