<?xml version="1.0" encoding="UTF-8"?>
<svg width="16px" height="16px" viewBox="0 0 16 16" version="1.1" xmlns="http://www.w3.org/2000/svg" xmlns:xlink="http://www.w3.org/1999/xlink">
    <title>关闭</title>
    <g id="页面-1" stroke="none" stroke-width="1" fill="none" fill-rule="evenodd">
        <g id="弹窗样式" transform="translate(-1370.000000, -164.000000)" fill="#ffffff" fill-rule="nonzero">
            <g id="编组" transform="translate(514.000000, 147.000000)">
                <path d="M864,24.081448 L857.109561,17.1910087 C856.855299,16.9388364 856.445271,16.9388364 856.191009,17.1910087 C856.068746,17.312574 856,17.4778713 856,17.6502847 C856,17.8226981 856.068746,17.9879954 856.191009,18.1095607 L863.081448,25 L856.191009,31.8904393 C855.938836,32.1447012 855.938836,32.5547294 856.191009,32.8089913 C856.312574,32.9312544 856.477871,33 856.650285,33 C856.822698,33 856.987995,32.9312544 857.109561,32.8089913 L864,25.918552 L870.890439,32.8089913 C871.14054,33.0590921 871.554993,33.0623402 871.808991,32.8089913 C871.931254,32.687426 872,32.5221287 872,32.3497153 C872,32.1773019 871.931254,32.0120046 871.808991,31.8904393 L864.918552,25 L871.808991,18.1095607 C872.061164,17.8552988 872.061164,17.4452706 871.808991,17.1910087 C871.687426,17.0687456 871.522129,17 871.349715,17 C871.177302,17 871.012005,17.0687456 870.890439,17.1910087 L864,24.081448 Z" id="关闭"></path>
            </g>
        </g>
    </g>
</svg>