<?xml version="1.0" encoding="UTF-8"?>
<svg width="16px" height="16px" viewBox="0 0 16 16" version="1.1" xmlns="http://www.w3.org/2000/svg" xmlns:xlink="http://www.w3.org/1999/xlink">
    <title>上传</title>
    <g id="app端" stroke="none" stroke-width="1" fill="none" fill-rule="evenodd">
        <g id="08-1结果反馈" transform="translate(-24.000000, -883.000000)">
            <g id="附件" transform="translate(0.000000, 786.000000)">
                <g id="按钮" transform="translate(12.000000, 89.000000)">
                    <g id="上传" transform="translate(12.000000, 8.000000)">
                        <rect id="矩形" x="0" y="0" width="16" height="16"></rect>
                        <path d="M8.59091397,6.62498918 L10.9563391,8.80334599 L11.0256158,8.87565021 C11.2948224,9.19650335 11.2474428,9.65486017 10.9173425,9.9231007 C10.5872423,10.1913412 10.0878561,10.1772881 9.77613049,9.89098601 L8.83630387,9.025643 L8.83630387,13.6308062 C8.83630387,14.0556202 8.46261407,14.4 8.00164433,14.4 C7.5406746,14.4 7.1669848,14.0556202 7.1669848,13.6308062 L7.1669848,9.02333542 L6.2246542,9.89098601 C5.89871977,10.1912654 5.37038004,10.1912654 5.04444562,9.89098601 L4.97516888,9.81868179 C4.71742417,9.51247707 4.74711062,9.07738554 5.04444562,8.80334599 L7.40987072,6.62498918 C7.7362226,6.32500361 8.26456208,6.32500361 8.59091397,6.62498918 Z M7.99902968,1.6 C10.2953488,1.6 12.2686482,2.98322846 13.1321665,4.96132513 C15.0393485,5.52346941 16.2435508,7.40176365 15.9583133,9.36950061 C15.6730758,11.3372376 13.9851013,12.7962902 11.9967998,12.7937597 C11.5737611,12.7932871 11.2242989,12.4633722 11.1995069,12.0410603 C11.1747149,11.6187484 11.483174,11.25021 11.903252,11.2002452 L11.9967998,11.1946483 C13.1903562,11.1971129 14.2041394,10.321657 14.3755501,9.14047061 C14.5469608,7.95928419 13.8238428,6.83177378 12.6788194,6.49486975 L11.9640181,6.28378749 L11.6657844,5.60096834 C10.9478407,3.95129394 9.21655122,2.98424594 7.43540647,3.23800216 C5.65426173,3.49175838 4.26191992,4.90382404 4.03324171,6.68836182 L3.89491887,7.78215173 L2.82351649,8.04120723 C2.04138769,8.23704944 1.52699803,8.98404308 1.62300583,9.78458173 C1.71901363,10.5851204 2.39544812,11.1892997 3.20170553,11.1946483 L4.00125957,11.1946483 C4.44284105,11.1946483 4.80081356,11.5526208 4.80081356,11.9942023 C4.80081356,12.4357838 4.44284105,12.7937597 4.00125957,12.7937597 L3.20170553,12.7937597 C1.58112974,12.7954114 0.215451898,11.5846728 0.0228827567,9.97557809 C-0.169686385,8.36648338 0.871725207,6.8676752 2.44692654,6.48687421 C2.80458433,3.69306907 5.18242424,1.60013163 7.99902968,1.6 Z" id="形状结合" fill="#1676FE" fill-rule="nonzero"></path>
                    </g>
                </g>
            </g>
        </g>
    </g>
</svg>