<?xml version="1.0" encoding="UTF-8"?>
<svg width="29px" height="32px" viewBox="0 0 29 32" version="1.1" xmlns="http://www.w3.org/2000/svg" xmlns:xlink="http://www.w3.org/1999/xlink">
    <title>跳转</title>
    <defs>
        <path d="M1072.26488,757.260611 C1072.61648,756.911591 1073.18474,756.913361 1073.53415,757.264571 L1084.58051,768.368021 L1084.59707,768.385121 C1084.92827,768.735821 1084.92275,769.287941 1084.58051,769.631981 L1073.53415,780.735431 L1073.51735,780.751901 C1073.16674,781.086611 1072.61087,781.082861 1072.26485,780.739391 L1072.24838,780.722591 C1071.91328,780.372371 1071.91706,779.817101 1072.26092,779.471471 L1082.67851,769 L1072.26092,758.528531 L1072.24454,758.511641 C1071.91166,758.159351 1071.91886,757.604141 1072.26488,757.260641 L1072.26488,757.260611 Z M1080.27347,757.260611 C1080.62507,756.911591 1081.19333,756.913361 1081.54277,757.264571 L1092.5891,768.368021 L1092.60566,768.385121 C1092.93686,768.735821 1092.93137,769.287941 1092.5891,769.631981 L1081.54274,780.735431 L1081.52594,780.751901 C1081.17536,781.086611 1080.61949,781.082861 1080.27347,780.739391 L1080.25697,780.722591 C1079.92193,780.372371 1079.92565,779.817101 1080.26951,779.471471 L1090.68713,769.000061 L1080.26951,758.528561 L1080.25316,758.511641 C1079.92025,758.159351 1079.92745,757.604141 1080.27347,757.260641 L1080.27347,757.260611 Z" id="path-1"></path>
        <filter x="-28.8%" y="-25.0%" width="157.6%" height="150.0%" filterUnits="objectBoundingBox" id="filter-2">
            <feOffset dx="0" dy="0" in="SourceAlpha" result="shadowOffsetOuter1"></feOffset>
            <feGaussianBlur stdDeviation="2" in="shadowOffsetOuter1" result="shadowBlurOuter1"></feGaussianBlur>
            <feColorMatrix values="0 0 0 0 0.21513255   0 0 0 0 0.822430386   0 0 0 0 1  0 0 0 1 0" type="matrix" in="shadowBlurOuter1"></feColorMatrix>
        </filter>
    </defs>
    <g id="首页-1" stroke="none" stroke-width="1" fill="none" fill-rule="evenodd">
        <g id="秀洲法助共富小微企业应用监测" transform="translate(-1068.000000, -753.000000)" fill-rule="nonzero">
            <g id="跳转">
                <use fill="black" fill-opacity="1" filter="url(#filter-2)" xlink:href="#path-1"></use>
                <use fill="#37D2FF" xlink:href="#path-1"></use>
            </g>
        </g>
    </g>
</svg>