<?xml version="1.0" encoding="UTF-8"?>
<svg width="22px" height="24px" viewBox="0 0 22 24" version="1.1" xmlns="http://www.w3.org/2000/svg" xmlns:xlink="http://www.w3.org/1999/xlink">
    <!-- Generator: Sketch 58 (84663) - https://sketch.com -->
    <title>数据工厂</title>
    <desc>Created with Sketch.</desc>
    <g id="页面-1" stroke="none" stroke-width="1" fill="none" fill-rule="evenodd">
        <g id="0数据工厂-首页" transform="translate(-31.000000, -23.000000)" fill-rule="nonzero">
            <g id="top">
                <g id="数据工厂" transform="translate(31.000000, 23.000000)">
                    <path d="M19.9969483,16.9514159 L19.5959749,16.9514159 L19.5959749,16.5520274 C19.5959749,15.4809398 18.7211237,14.5913926 17.6275598,14.5913926 L15.2763974,14.5913926 C14.2010595,14.5913926 13.3079823,15.4627858 13.3079823,16.5520274 L13.3079823,18.8938967 C13.3079823,19.9649842 14.1828335,20.8545314 15.2763974,20.8545314 L15.6773708,20.8545314 L15.6773708,21.25392 C15.6773708,22.3250075 16.5522219,23.2145547 17.6457859,23.2145547 L19.9969483,23.2145547 C21.0722862,23.2145547 21.9653634,22.3431615 21.9653634,21.25392 L21.9653634,18.9120507 C21.9653634,17.8409632 21.0905122,16.9514159 19.9969483,16.9514159 Z M15.2946234,19.3114393 C15.0759107,19.3114393 14.9118761,19.129899 14.89365,18.9120507 L14.89365,16.5701814 C14.89365,16.3523331 15.0759107,16.1707928 15.2946234,16.1707928 L17.6457859,16.1707928 C17.8644987,16.1707928 18.0467593,16.3523331 18.0467593,16.5701814 L18.0467593,16.96957 L17.6457859,16.96957 C16.570448,16.96957 15.6773708,17.8409632 15.6773708,18.9302047 L15.6773708,19.3295933 L15.2946234,19.3295933 L15.2946234,19.3114393 Z M18.0467593,18.5126621 L18.0467593,18.9120507 C18.0467593,19.129899 17.8644986,19.3114393 17.6457859,19.3114393 L17.2448124,19.3114393 L17.2448124,18.9120507 C17.2448124,18.6942024 17.4270731,18.5308162 17.6457859,18.5126621 L18.0467593,18.5126621 Z M20.3979217,21.25392 C20.3979217,21.4717683 20.2156611,21.6351545 19.9969483,21.6533085 L17.6457859,21.6533085 C17.4270731,21.6533085 17.2630385,21.4717683 17.2448124,21.25392 L17.2448124,20.8545314 L17.6457859,20.8545314 C18.7211237,20.8545314 19.6142009,19.9831382 19.6142009,18.8938967 L19.6142009,18.4945081 L20.0151744,18.4945081 C20.2338872,18.4945081 20.3979217,18.6760484 20.4161478,18.8938967 L20.4161478,21.25392 L20.3979217,21.25392 Z" id="形状" fill="#FE9B26"></path>
                    <path d="M3.92155865,18.6491955 C3.48413308,18.6491955 3.13783787,18.994122 3.13783787,19.4298186 C3.13783787,19.8655152 3.48413311,20.2104417 3.92155865,20.2104417 C4.3589842,20.2104417 4.70527946,19.8655152 4.70527946,19.4298186 C4.70527946,18.994122 4.34075816,18.6491955 3.92155865,18.6491955 Z M14.5109026,2.76366673 L7.0564419,2.76366673 C6.61901633,2.76366673 6.27272109,3.10859321 6.27272109,3.54428983 C6.27272109,3.97998645 6.61901633,4.32491293 7.0564419,4.32491293 L14.5109026,4.32491293 C14.9483282,4.32491293 15.2946234,3.97998645 15.2946234,3.54428983 C15.2946234,3.10859321 14.9483282,2.76366673 14.5109026,2.76366673 Z M10.975046,10.7064311 L7.0564419,10.7064311 C6.61901633,10.7064311 6.27272109,11.0513576 6.27272109,11.4870542 C6.27272109,11.9227508 6.61901633,12.2676773 7.0564419,12.2676773 L10.975046,12.2676773 C11.4124715,12.2676773 11.7587668,11.9227508 11.7587668,11.4870542 C11.7587668,11.0513576 11.4124715,10.7064311 10.975046,10.7064311 Z M3.92155865,10.7064311 C3.48413308,10.7064311 3.13783787,11.0513576 3.13783787,11.4870542 C3.13783787,11.9227508 3.48413311,12.2676773 3.92155865,12.2676773 C4.3589842,12.2676773 4.70527946,11.9227508 4.70527946,11.4870542 C4.70527946,11.0513576 4.34075816,10.7064311 3.92155865,10.7064311 Z M3.92155865,2.76366673 C3.48413308,2.76366673 3.13783787,3.10859321 3.13783787,3.54428983 C3.13783787,3.97998645 3.48413311,4.32491293 3.92155865,4.32491293 C4.3589842,4.32491293 4.70527946,3.97998645 4.70527946,3.54428983 C4.70527946,3.10859321 4.34075816,2.76366673 3.92155865,2.76366673 Z" id="形状" fill="#118DDE"></path>
                    <path d="M16.4610916,7.96517327 L2.35411706,7.96517327 C1.06006643,7.96517327 0.00295462229,9.01810675 0.00295462229,10.3070426 L0.00295462229,12.6670659 C0.00295462229,13.9560017 1.0600664,15.0089352 2.35411706,15.0089352 L12.0503838,15.0089352 L12.2873226,14.7547788 C13.216852,13.7199994 14.5655808,13.0664544 16.0783442,13.0664544 C16.6798044,13.0664544 17.2448124,13.1753786 17.7733683,13.3569189 L18.812254,13.7199994 L18.812254,10.3070426 C18.8304801,9.01810678 17.7733683,7.96517327 16.4610916,7.96517327 L16.4610916,7.96517327 Z M11.3577933,13.447689 L2.35411706,13.447689 C1.91669149,13.447689 1.57039625,13.1027625 1.57039625,12.6670659 L1.57039625,10.3070426 C1.57039625,9.87134596 1.91669149,9.52641948 2.35411706,9.52641948 L16.4793177,9.52641948 C16.9167433,9.52641948 17.2630385,9.87134596 17.2630385,10.3070426 L17.2630385,11.5778244 C16.8802911,11.5052082 16.4975438,11.4689002 16.0783442,11.4689002 C14.2375117,11.4870542 12.5607136,12.2313693 11.3577933,13.447689 L11.3577933,13.447689 Z M16.4610916,0.0224088788 L2.35411706,0.0224088788 C1.06006643,0.0224088788 0.00295462229,1.07534235 0.00295462229,2.36427818 L0.00295462229,4.32491293 C0.00295462229,5.61384873 1.0600664,6.66678223 2.35411706,6.66678223 L16.4793177,6.66678223 C17.7733683,6.66678223 18.8304801,5.61384876 18.8304801,4.32491293 L18.8304801,2.36427818 C18.8304801,1.07534238 17.7733683,0.0224088788 16.4610916,0.0224088788 Z M17.2630385,4.32491293 C17.2630385,4.76060955 16.9167433,5.10553603 16.4793177,5.10553603 L2.35411706,5.10553603 C1.91669149,5.10553603 1.57039625,4.76060955 1.57039625,4.32491293 L1.57039625,2.36427818 C1.57039625,1.92858156 1.91669149,1.58365508 2.35411706,1.58365508 L16.4793177,1.58365508 C16.9167433,1.58365508 17.2630385,1.92858156 17.2630385,2.36427818 L17.2630385,4.32491293 L17.2630385,4.32491293 Z M10.993272,16.7430228 L11.0479502,15.9079377 L2.35411706,15.9079377 C1.06006643,15.9079377 0.00295462229,16.9608711 0.00295462229,18.2498069 L0.00295462229,20.5916762 C0.00295462229,21.8806121 1.0600664,22.9335456 2.35411706,22.9335456 L15.0489513,22.9335456 L13.3079823,21.9130435 C11.0479502,20.4701767 10.975046,18.975968 10.975046,17.0879493 C10.975046,16.9971792 10.975046,16.888255 10.993272,16.7430228 Z M1.55217016,20.6098303 L1.55217016,18.267961 C1.55217016,17.8322644 1.8984654,17.4873379 2.33589097,17.4873379 L9.40760433,17.4873379 C9.42583039,17.8867265 9.49873467,18.286115 9.589865,18.6673495 L7.03821584,18.6673495 C6.60079027,18.6673495 6.25449503,19.012276 6.25449503,19.4479726 C6.25449503,19.8836693 6.60079027,20.2285957 7.03821584,20.2285957 L10.1730991,20.2285957 C10.3918119,20.6461383 10.6652028,21.0455269 10.975046,21.4086074 L2.35411706,21.4086074 C1.91669149,21.3904534 1.55217016,21.0273729 1.55217016,20.6098303 Z" id="形状" fill="#158DFF"></path>
                </g>
            </g>
        </g>
    </g>
</svg>