<?xml version="1.0" encoding="UTF-8"?>
<svg width="14px" height="14px" viewBox="0 0 14 14" version="1.1" xmlns="http://www.w3.org/2000/svg" xmlns:xlink="http://www.w3.org/1999/xlink">
    <title>文件夹</title>
    <g id="页面-1" stroke="none" stroke-width="1" fill="none" fill-rule="evenodd">
        <g id="17浙江省企业信用综合监管平台-返回查看文件" transform="translate(-30.000000, -34.000000)" fill="#FFFFFF" fill-rule="nonzero">
            <g id="编组-2" transform="translate(30.000000, 30.000000)">
                <g id="文件夹" transform="translate(0.000000, 4.000000)">
                    <path d="M13.3,4.2 L13.3,1.4 L6.034,1.4 L5.334,0 L0,0 L0,11.9 C0,13.059798 0.940202025,14 2.1,14 L14,14 L14,4.2 L13.3,4.2 Z M1.4,11.9 L1.4,1.4 L4.466,1.4 L5.166,2.8 L11.9,2.8 L11.9,4.2 L2.8,4.2 L2.8,11.9 C2.8,12.2865993 2.48659932,12.6 2.1,12.6 C1.71340068,12.6 1.4,12.2865993 1.4,11.9 Z" id="形状"></path>
                </g>
            </g>
        </g>
    </g>
</svg>