<?xml version="1.0" encoding="UTF-8"?>
<svg width="14px" height="14px" viewBox="0 0 14 14" version="1.1" xmlns="http://www.w3.org/2000/svg" xmlns:xlink="http://www.w3.org/1999/xlink">
    <title>pdf</title>
    <g id="页面-1" stroke="none" stroke-width="1" fill="none" fill-rule="evenodd">
        <g id="17浙江省企业信用综合监管平台-返回查看文件" transform="translate(-308.000000, -283.000000)" fill="#fff" fill-rule="nonzero">
            <g id="编组-4" transform="translate(293.000000, 30.000000)">
                <g id="pdf" transform="translate(15.000000, 253.000000)">
                    <path d="M11.8997387,0 C12.4567626,0 12.9909723,0.221276896 13.3848477,0.615152297 C13.7787231,1.0090277 14,1.54323738 14,2.10026132 L14,11.9004853 C13.9995878,13.060136 13.0593895,14 11.8997387,14 L2.10026132,14 C1.54323738,14 1.00902769,13.7787231 0.615152291,13.3848477 C0.221276889,12.9909723 0,12.4567626 0,11.8997387 L0,2.10100795 C0,0.941065653 0.94031902,0.00074663268 2.10026132,0.00074663268 L11.8989921,0.00074663268 L11.8997387,0 Z M11.8997387,1.05050397 L2.10026132,1.05050397 C1.52013226,1.05050397 1.04975734,1.52087889 1.04975734,2.10026132 L1.04975734,11.9004853 C1.04975734,12.4798677 1.52013226,12.9502427 2.10026132,12.9502427 L11.8989921,12.9502427 C12.4791211,12.9502427 12.9487494,12.4798677 12.9487494,11.9004853 L12.9487494,2.10026132 C12.9487494,1.52013226 12.4783745,1.05050397 11.8989921,1.05050397 L11.8997387,1.05050397 Z" id="形状"></path>
                    <path d="M6.54791744,2.71473522 C6.79133135,2.71715261 7.02000815,2.83176652 7.16761773,3.02533198 C7.47672125,3.45464241 7.8784065,4.13780598 7.13028638,5.70124261 C7.51106607,6.4157645 7.9291771,7.06010347 8.52573196,7.6088742 C9.02597195,7.51479922 9.52621193,7.32888913 10.0264519,7.32888913 C11.1463922,7.35278119 11.5047731,7.93888327 11.4801344,8.2487334 C11.4801344,9.06031679 10.806677,9.32760919 10.1459122,9.27534532 L10.1459122,9.27609196 C9.49634686,9.23278759 8.82960909,8.81915632 8.3345955,8.39731215 C7.35800758,8.61159405 6.42920379,8.92219083 5.50039998,9.30446377 C4.96058877,10.9291238 4.07135619,11.2875047 3.47704122,11.2875047 C3.3568343,11.2875047 3.21422856,11.2636126 3.11866033,11.1919364 C2.86866808,11.0750658 2.71012282,10.8227949 2.71324195,10.5468508 C2.71324195,10.3325689 2.64604553,9.09092849 5.02330542,8.4652552 C5.50039998,7.31694311 5.78486481,6.85403446 6.1880433,5.79531759 C5.51607914,4.85904753 5.38019306,3.81451656 5.80875686,3.09700816 C5.95210921,2.8341955 6.23806729,2.69158978 6.54791744,2.71473522 L6.54791744,2.71473522 Z M4.96058877,9.09092849 C4.3886726,9.36867367 3.68385686,9.87264679 3.75329315,10.194443 C3.79809077,10.4087249 4.04597087,10.3363021 4.49544025,9.97493468 C4.7776652,9.61207404 4.82395605,9.4246707 4.96058877,9.09092849 L4.96058877,9.09092849 Z M10.1384459,7.97248148 C9.90848488,7.97248148 9.70390912,8.02101222 9.47394806,8.12404672 C9.67927044,8.35400779 9.86966028,8.53991787 10.1264999,8.59143512 C10.3049437,8.64295238 10.650632,8.70342915 10.7521732,8.43464349 C10.8552077,8.16735107 10.650632,7.97248148 10.1384459,7.97248148 Z M6.76219936,6.74278706 C6.56434435,7.21501135 6.35598367,7.6827649 6.13727268,8.1456989 L7.54093115,7.6783105 C7.24974668,7.37965975 6.98693402,7.09668819 6.76219936,6.74278706 L6.76219936,6.74278706 Z M6.53895792,3.74881339 C6.39859207,3.7712122 6.32243614,3.95040264 6.28585141,4.07732922 C6.21193536,4.43869662 6.40605833,4.84187512 6.64871206,5.12857981 C6.84880806,4.82694257 6.89957868,4.54845075 6.8219295,4.13855261 C6.72860115,3.86379393 6.63452616,3.73388086 6.53895792,3.74806678 L6.53895792,3.74881339 Z" id="形状"></path>
                </g>
            </g>
        </g>
    </g>
</svg>