<?xml version="1.0" encoding="UTF-8"?>
<svg width="14px" height="14px" viewBox="0 0 14 14" version="1.1" xmlns="http://www.w3.org/2000/svg" xmlns:xlink="http://www.w3.org/1999/xlink">
    <title>pic</title>
    <g id="页面-1" stroke="none" stroke-width="1" fill="none" fill-rule="evenodd">
        <g id="17浙江省企业信用综合监管平台-返回查看文件" transform="translate(-308.000000, -243.000000)" fill="#6498F7" fill-rule="nonzero">
            <g id="编组-4" transform="translate(293.000000, 30.000000)">
                <g id="pic" transform="translate(15.000000, 213.000000)">
                    <path d="M12.875,0 L1.125,0 C0.50625,0 0,0.589473684 0,1.30994152 L0,12.6900585 C0,13.4105263 0.50625,14 1.125,14 L12.875,14 C13.49375,14 14,13.4105263 14,12.6900585 L14,1.30994152 C14,0.589473684 13.49375,0 12.875,0 L12.875,0 Z M12.875,12.8953125 L1.128125,12.896875 L1.1265625,8.5703125 L4.0265625,5.6046875 L7.421875,9.821875 C7.609375,10.034375 7.925,10.075 8.159375,9.915625 L10.6671875,8.2203125 L12.875,9.259375 L12.875,12.8953125 Z M12.875,7.84375 L11.0296875,7.0828125 C10.8375,6.9359375 10.5734375,6.928125 10.3734375,7.0640625 L7.9390625,8.70625 L4.46875,4.40625 C4.365625,4.2890625 4.2171875,4.2203125 4.0609375,4.215625 C3.9046875,4.2109375 3.753125,4.2734375 3.64375,4.384375 L1.125,6.9609375 L1.125,1.1265625 L12.871875,1.125 L12.875,7.84375 Z M9.90625,2.278125 C9.0359375,2.278125 8.328125,2.9859375 8.328125,3.85625 C8.328125,4.7265625 9.0359375,5.434375 9.90625,5.434375 C10.7765625,5.434375 11.484375,4.7265625 11.484375,3.85625 C11.484375,2.9859375 10.7765625,2.278125 9.90625,2.278125 Z M9.90625,4.309375 C9.65625,4.309375 9.453125,4.10625 9.453125,3.85625 C9.453125,3.60625 9.65625,3.403125 9.90625,3.403125 C10.15625,3.403125 10.359375,3.60625 10.359375,3.85625 C10.359375,4.10625 10.15625,4.309375 9.90625,4.309375 Z" id="形状"></path>
                </g>
            </g>
        </g>
    </g>
</svg>