<svg width="30" height="30" viewBox="0 0 30 30" fill="none" xmlns="http://www.w3.org/2000/svg">
<rect width="30" height="30" rx="15" fill="white"/>
<path d="M10.2728 4.503C10.2641 4.52542 10.2541 4.54909 10.2454 4.57151C5.39534 5.79631 7.5 17.5001 8.50001 23.0001C9.50001 28.5001 4.46629 23.0797 5.26964 24.36C6.07299 25.6404 7.42809 26.5023 8.8654 26.9706C10.3027 27.4389 11.8297 27.551 13.3392 27.6021C14.921 27.6556 16.5203 27.6457 18.0609 27.2857C19.6016 26.9258 21.0937 26.1872 22.1213 24.984C23.1488 23.7809 20.5 23.0001 20.5 23.0001C20.5 23.0001 23.6823 10.0001 21.1535 5.00868C19.9503 2.63367 15.5533 0.870488 13.0441 1.80898C11.8023 2.27356 10.7723 3.27619 10.2728 4.503Z" fill="#414145"/>
<path d="M24.4591 29.8216C24.3595 27.4577 24.1415 24.4236 23.6657 23.5219C22.8536 21.9812 18.1693 21.8342 17.4195 20.5875C16.6697 19.3407 16.7943 17.0652 16.7943 17.0652L14.6707 17.1387L12.5471 17.0652C12.5471 17.0652 12.6717 19.3395 11.9231 20.5875C11.1733 21.8342 6.489 21.9812 5.67693 23.5219C5.20239 24.4236 4.98319 27.4564 4.88354 29.8216H24.4591Z" fill="#FDE5CF"/>
<path d="M9.2565 11.6398C9.2565 11.6398 8.31366 10.8439 7.5676 11.7494C6.9461 12.5041 7.79055 14.0374 8.63375 14.5256C9.47696 15.0138 9.78833 14.4807 9.78833 14.4807L9.2565 11.6398Z" fill="#FFEADC"/>
<path d="M9.30128 13.0024C9.30128 13.0024 8.74952 11.9536 8.05951 11.9262C7.3695 11.8988 8.63867 12.1467 8.58387 12.6163C8.52907 13.0846 7.97731 13.4993 8.27997 13.4719C8.58387 13.4445 8.85912 12.8654 8.99737 13.168C9.13563 13.4719 9.32868 13.6924 9.32868 13.5267C9.32868 13.3611 9.30128 13.0024 9.30128 13.0024Z" fill="#FFEADC"/>
<path d="M20.0874 11.6398C20.0874 11.6398 21.0302 10.8439 21.7763 11.7494C22.3978 12.5041 21.5533 14.0374 20.7101 14.5256C19.8669 15.0138 19.5555 14.4807 19.5555 14.4807L20.0874 11.6398Z" fill="#FFEADC"/>
<path d="M20.0425 13.0024C20.0425 13.0024 20.5943 11.9536 21.2843 11.9262C21.9743 11.8988 20.7051 12.1467 20.7599 12.6163C20.8148 13.0846 21.3665 13.4993 21.0638 13.4719C20.7612 13.4445 20.4847 12.8654 20.3464 13.168C20.2082 13.4719 20.0151 13.6924 20.0151 13.5267C20.0151 13.3611 20.0425 13.0024 20.0425 13.0024Z" fill="#FFEADC"/>
<path d="M14.672 4.11938C11.0812 4.25265 8.77575 6.55808 8.82059 8.37527C8.86667 10.2821 9.08713 15.5568 10.8595 17.4637C11.3539 17.9943 11.8683 18.4016 12.3541 18.7129C13.769 19.6197 15.5762 19.6197 16.9911 18.7129C17.4768 18.4016 17.9912 17.9943 18.4857 17.4637C20.2593 15.5568 20.4785 10.2821 20.5246 8.37527C20.5682 6.55808 18.2627 4.25265 14.672 4.11938Z" fill="#FFEADC"/>
<path d="M26.9445 30.0001C26.6689 27.7101 26.0495 24.7756 24.6521 23.6513C22.739 22.1113 19.3151 21.2996 17.9519 21.0258C17.7446 22.5645 16.3668 23.7555 14.6939 23.7555C13.0209 23.7555 11.6419 22.5645 11.4358 21.0258C10.0714 21.3008 6.64871 22.1113 4.73558 23.6513C3.33945 24.7756 2.71881 27.7101 2.44324 30.0001H26.9445Z" fill="#C463F2"/>
<path d="M9.24525 13.2489C9.24525 13.2489 8.62374 11.21 8.51912 9.55226C8.41574 7.8945 8.79562 6.51199 10.35 5.26774C11.9044 4.02348 14.0118 3.3671 16.4305 4.02348C18.8493 4.67986 20.1621 6.06237 20.5071 7.1335C20.8521 8.20463 20.9567 9.44888 20.6453 10.8999C20.334 12.3509 20.0238 13.6637 20.0238 13.6637C19.8229 12.3446 19.7771 11.0735 19.6788 9.75902C19.5191 7.70016 14.0333 7.79106 12.6654 7.37513C11.8708 7.1335 11.3526 6.58049 11.3526 6.58049C11.6702 7.91257 9.97859 12.1504 9.24525 13.2489Z" fill="#414145"/>
</svg>
