<svg width="30" height="30" viewBox="0 0 30 30" fill="none" xmlns="http://www.w3.org/2000/svg">
<g clip-path="url(#clip0_2390_43999)">
<rect width="30" height="30" rx="15" fill="white"/>
<path d="M12.0497 21.1628C12.4407 20.8439 12.4773 19.1081 12.4468 18.28L12.3551 18.2494C13.964 17.5849 17.1633 16.4461 17.0899 17.2067C16.9983 18.1574 17.0594 20.7641 17.3343 21.1628C17.5543 21.4818 18.546 21.7046 19.0144 21.7762C18.8189 22.6839 12.8643 22.2771 9.91138 21.9602C10.4612 21.8273 11.6587 21.4818 12.0497 21.1628Z" fill="#FDE5CF"/>
<path d="M6.45958 23.4866C7.3149 22.8732 9.78922 21.9839 10.9195 21.6158C13.7912 22.5674 15.4659 22.5473 18.5562 21.6158C23.4682 22.9162 25.1035 25.3267 25.3071 26.3694C25.1238 26.7067 22.0386 28.6694 20.9389 29.4361C19.8392 30.2028 11.6143 30.8731 10.1786 30.5358C8.74291 30.1984 4.38238 26.6147 4.29074 25.7867C4.1991 24.9586 5.39044 24.2533 6.45958 23.4866Z" fill="#3D9FFF"/>
<path fill-rule="evenodd" clip-rule="evenodd" d="M19.5705 21.9051C15.7153 23.9193 12.0207 23.0084 9.97241 21.9493C10.3457 21.8164 10.6834 21.7019 10.9476 21.6158C13.8194 22.5674 15.4941 22.5473 18.5844 21.6158C18.929 21.7071 19.2575 21.8038 19.5705 21.9051Z" fill="#B7D7FD"/>
<path fill-rule="evenodd" clip-rule="evenodd" d="M19.9384 14.8643C19.0436 17.4662 16.9972 19.285 14.6158 19.285C12.2344 19.285 10.1879 17.4661 9.29315 14.8641C8.82493 14.891 8.48234 14.4098 8.13974 13.6728C7.71209 12.7528 7.31497 11.8941 8.13974 11.1887C8.39023 10.9745 8.6369 10.9303 8.85936 10.9786C9.2255 7.36048 11.6632 4.56445 14.6158 4.56445C17.5652 4.56445 20.0008 7.35442 20.371 10.9668C20.5751 10.941 20.7971 10.9963 21.0221 11.1887C21.8469 11.8941 21.4498 12.7528 21.0221 13.6728C20.6967 14.3728 20.3714 14.842 19.9384 14.8643Z" fill="#FFEADC"/>
<path d="M21.1222 7.6005C21.0978 5.68683 19.8087 5.00396 19.1672 4.90173H18.5563C18.1795 5.34131 17.6521 6.37992 18.5563 7.01781C19.4605 7.6557 20.0123 10.0846 20.1753 11.2193C20.4929 11.0476 20.8575 11.1477 21 11.2193C21.0509 10.8104 21.1467 9.51417 21.1222 7.6005Z" fill="#3C3E42"/>
<path d="M18.6783 3.46042C15.9816 1.1558 11.6117 2.41771 10.0029 3.18441C10.391 3.36568 10.5196 3.49727 10.6444 3.7671C7.46752 5.5581 7.83408 9.46109 8.41448 11.1887H9.36144C9.58138 7.92565 12.243 7.68235 13.5464 7.96859C17.4259 9.1953 21.7636 6.09709 18.6783 3.46042Z" fill="#4F4F55"/>
</g>
<defs>
<clipPath id="clip0_2390_43999">
<rect width="30" height="30" rx="15" fill="white"/>
</clipPath>
</defs>
</svg>
