<?xml version="1.0" standalone="no"?><!DOCTYPE svg PUBLIC "-//W3C//DTD SVG 1.1//EN" "http://www.w3.org/Graphics/SVG/1.1/DTD/svg11.dtd"><svg height="1024" node-id="1" sillyvg="true" template-height="1024" template-width="1024" version="1.1" viewBox="0 0 1024 1024" width="1024" xmlns="http://www.w3.org/2000/svg" xmlns:xlink="http://www.w3.org/1999/xlink"><defs node-id="43"><linearGradient gradientUnits="userSpaceOnUse" id="未命名的渐变_31" node-id="5" spreadMethod="pad" x1="1008537.56" x2="1008537.56" y1="34871.203" y2="34578.402"><stop offset="0" stop-color="#e7e9eb" stop-opacity="0"></stop><stop offset="0.32" stop-color="#e7e9eb" stop-opacity="0.1"></stop><stop offset="1" stop-color="#e7e9eb"></stop></linearGradient><linearGradient gradientUnits="userSpaceOnUse" id="未命名的渐变_41" node-id="9" spreadMethod="pad" x1="466760.3" x2="466894.3" y1="62286.58" y2="62779.633"><stop offset="0" stop-color="#eef0f2"></stop><stop offset="1" stop-color="#dddee0"></stop></linearGradient><linearGradient gradientUnits="userSpaceOnUse" id="未命名的渐变_40" node-id="12" spreadMethod="pad" x1="222351.94" x2="222351.94" y1="26898.072" y2="27123.857"><stop offset="0" stop-color="#ffffff"></stop><stop offset="1" stop-color="#fafafa"></stop></linearGradient><linearGradient gradientUnits="userSpaceOnUse" id="未命名的渐变_39" node-id="15" spreadMethod="pad" x1="292261.97" x2="292261.97" y1="20436.125" y2="20602.031"><stop offset="0" stop-color="#f1f3f5"></stop><stop offset="1" stop-color="#e2e3e6"></stop></linearGradient></defs><g node-id="70"><path d="M 3.31 707.15 C 3.31 707.15 51.72 552.09 215.85 553.24 C 305.85 553.80 375.62 594.37 433.10 613.32 C 480.37 628.87 519.32 623.56 554.30 622.04 C 631.84 618.63 715.22 584.32 796.14 587.16 C 877.07 589.82 887.85 621.66 942.50 638.53 C 984.10 651.42 1024.00 677.39 1024.00 699.53 C 1024.00 726.14 1008.68 759.23 958.00 767.63 C 883.69 779.77 649.80 864.30 396.80 842.13 C 166.50 821.90 0.00 775.18 0.00 721.45 C 0.42 716.55 1.53 711.74 3.31 707.15 Z" fill="url(#未命名的渐变_31)" fill-rule="nonzero" group-id="1" id="路径_16806" node-id="20" stroke="none" target-height="312.20996" target-width="1024" target-x="0" target-y="552.09"></path><path d="M 713.14 809.23 C 713.14 829.43 623.09 845.80 512.00 845.80 C 400.91 845.80 310.86 829.43 310.86 809.23 C 310.86 789.03 400.91 772.66 512.00 772.66 C 623.09 772.66 713.14 789.03 713.14 809.23 Z" fill="#eef0f2" fill-rule="nonzero" group-id="1" id="椭圆_770" node-id="21" stroke="none" target-height="73.140015" target-width="402.28003" target-x="310.86" target-y="772.66"></path><path d="M 146.28 483.07 C 146.28 483.07 144.57 497.07 149.28 503.49 C 150.98 505.76 160.43 510.49 161.19 521.83 C 161.76 532.98 157.19 553.60 127.72 554.74 C 100.50 555.88 65.14 546.61 75.16 505.96 C 81.59 484.78 101.63 489.14 99.55 453.21 C 99.19 428.63 111.65 403.29 120.17 404.43 C 127.92 405.37 128.49 417.43 133.97 427.30 C 137.56 434.09 147.58 442.41 146.28 483.07 Z" fill="#eef0f2" fill-rule="nonzero" group-id="1" id="路径_16807" node-id="22" stroke="none" target-height="152.59" target-width="96.619995" target-x="65.14" target-y="403.29"></path><path d="M 117.32 588.58 C 117.32 591.22 122.23 591.98 122.23 586.69 C 122.04 581.57 121.87 566.45 121.10 558.53 C 120.91 556.26 119.59 551.34 119.78 550.02 C 120.34 547.02 124.31 537.35 125.26 534.32 C 129.09 520.42 130.56 505.98 129.61 491.59 C 128.29 471.92 126.96 471.92 124.88 472.12 C 122.80 472.32 124.88 483.65 125.25 490.84 C 126.67 508.40 124.35 526.06 118.44 542.65 C 118.07 543.59 115.79 546.99 112.95 541.51 C 110.11 536.03 96.50 516.74 104.26 498.21 C 106.72 492.54 103.12 493.30 100.26 498.78 C 97.75 504.01 96.83 509.85 97.61 515.60 C 99.99 526.38 104.23 536.67 110.12 546.00 C 112.40 548.87 114.25 552.05 115.60 555.46 C 117.00 561.73 117.32 588.58 117.32 588.58 Z" fill="#d8d9db" fill-rule="nonzero" group-id="1" id="路径_16808" node-id="23" stroke="none" target-height="120.05997" target-width="34.060303" target-x="96.5" target-y="471.92"></path><path d="M 935.89 536.00 C 935.89 536.00 934.19 550.00 938.89 556.42 C 940.59 558.69 950.04 563.42 950.80 574.76 C 951.36 585.92 946.80 606.53 917.33 607.68 C 890.10 608.81 854.75 599.55 864.77 558.90 C 871.20 537.72 891.24 542.07 889.16 506.14 C 888.79 481.56 901.26 456.23 909.77 457.36 C 917.53 458.30 918.09 470.36 923.57 480.24 C 927.18 487.00 937.20 495.36 935.89 536.00 Z" fill="#eef0f2" fill-rule="nonzero" group-id="1" id="路径_16809" node-id="24" stroke="none" target-height="152.57999" target-width="96.609985" target-x="854.75" target-y="456.23"></path><path d="M 908.83 641.52 C 908.83 644.16 913.74 644.92 913.74 639.63 C 913.55 634.51 913.37 619.39 912.61 611.47 C 912.42 609.20 911.09 604.28 911.28 602.96 C 911.85 599.96 915.82 590.29 916.77 587.26 C 920.60 573.36 922.07 558.92 921.12 544.53 C 919.79 524.87 918.47 524.87 916.39 525.06 C 914.31 525.25 916.39 536.59 916.75 543.78 C 918.18 561.34 915.86 579.00 909.95 595.59 C 909.58 596.53 907.30 599.94 904.46 594.45 C 901.62 588.96 888.00 569.68 895.77 551.15 C 898.22 545.48 894.63 546.24 891.77 551.72 C 889.27 556.95 888.35 562.80 889.13 568.54 C 891.50 579.34 895.72 589.65 901.62 599.00 C 903.91 601.86 905.76 605.05 907.11 608.46 C 908.27 614.67 908.83 641.52 908.83 641.52 Z" fill="#d8d9db" fill-rule="nonzero" group-id="1" id="路径_16810" node-id="25" stroke="none" target-height="120.04999" target-width="34.070313" target-x="888" target-y="524.87"></path><path d="M 159.31 274.89 C 159.31 288.36 148.39 299.28 134.92 299.28 C 121.45 299.28 110.53 288.36 110.53 274.89 C 110.53 261.42 121.45 250.50 134.92 250.50 C 148.39 250.50 159.31 261.42 159.31 274.89 Z" fill="#eef0f2" fill-rule="nonzero" group-id="1" id="椭圆_767" node-id="26" stroke="none" target-height="48.78" target-width="48.78" target-x="110.53" target-y="250.5"></path><path d="M 54.17 526.74 C 54.17 537.18 45.70 545.65 35.26 545.65 C 24.82 545.65 16.35 537.18 16.35 526.74 C 16.35 516.30 24.82 507.83 35.26 507.83 C 45.70 507.83 54.17 516.30 54.17 526.74 Z" fill="#eef0f2" fill-rule="nonzero" group-id="1" id="椭圆_768" node-id="27" stroke="none" target-height="37.820038" target-width="37.82" target-x="16.35" target-y="507.83"></path><path d="M 905.05 350.53 C 905.05 369.32 889.81 384.56 871.02 384.56 C 852.23 384.56 836.99 369.32 836.99 350.53 C 836.99 331.74 852.23 316.50 871.02 316.50 C 889.81 316.50 905.05 331.74 905.05 350.53 Z" fill="#eef0f2" fill-rule="nonzero" group-id="1" id="椭圆_769" node-id="28" stroke="none" target-height="68.06" target-width="68.06" target-x="836.99" target-y="316.5"></path></g><g node-id="71"><g node-id="72"><path d="M 224.13 297.07 C 224.13 244.80 275.78 236.34 275.78 236.34 C 324.36 236.34 360.86 302.45 360.86 302.45 L 316.55 313.38 C 316.55 313.38 327.42 322.38 327.42 335.12 C 327.42 335.12 327.18 362.30 292.08 362.30 C 292.08 362.30 224.13 358.59 224.13 297.07 Z" fill="#d8d9db" fill-rule="evenodd" group-id="2,3" id="形状_1_拷贝" node-id="31" stroke="none" target-height="125.95999" target-width="136.72998" target-x="224.13" target-y="236.34"></path><path d="M 360.75 302.00 L 316.07 313.43 C 316.07 313.43 326.94 322.43 326.94 335.17 C 326.94 335.17 324.07 362.31 292.50 362.31 L 299.20 361.98 L 380.67 341.50 Z" fill="#eef0f2" fill-rule="evenodd" group-id="2,3" id="形状_1_拷贝_2" node-id="32" stroke="none" target-height="60.309998" target-width="88.17001" target-x="292.5" target-y="302"></path><path d="M 224.13 295.24 C 224.13 295.24 219.13 246.35 275.78 231.03 L 561.17 180.20 C 561.17 180.20 661.74 195.79 661.74 314.00 C 661.74 314.00 660.54 366.00 650.86 399.61 C 650.86 399.61 637.27 435.69 637.27 463.83 C 637.27 463.83 632.11 544.75 699.79 586.89 L 528.55 640.38 C 538.80 649.03 544.76 661.74 544.85 675.16 C 544.85 675.16 538.72 723.31 498.65 723.31 C 498.65 723.31 459.93 715.55 417.10 667.13 C 417.10 667.13 357.30 612.40 357.30 533.36 C 357.30 533.36 354.74 484.90 368.17 439.74 C 368.17 439.74 373.61 426.57 373.61 375.52 C 373.61 375.52 376.56 334.52 357.30 300.61 C 357.30 300.61 324.35 239.08 275.75 239.08 C 275.78 239.06 230.93 244.23 224.13 295.24 Z" fill="url(#未命名的渐变_41)" fill-rule="evenodd" group-id="2,3" id="形状_1" node-id="33" stroke="none" target-height="543.11" target-width="480.65997" target-x="219.13" target-y="180.2"></path><path d="M 400.80 310.66 L 409.00 332.41 L 618.24 286.20 L 612.80 264.46 Z M 417.11 362.30 L 419.83 384.05 L 621.00 340.56 L 618.28 318.82 Z M 419.83 416.66 L 626.39 370.46 L 629.11 392.20 L 422.54 438.40 Z M 414.39 468.30 L 490.49 449.30 L 493.21 471.00 L 417.11 490.00 Z" fill="url(#未命名的渐变_40)" fill-rule="evenodd" group-id="2,3" id="形状_5" node-id="34" stroke="none" target-height="225.54001" target-width="228.31" target-x="400.8" target-y="264.46"></path><path d="M 699.79 584.67 L 528.39 640.47 C 538.68 649.34 542.39 661.47 542.50 675.04 C 542.50 675.04 538.74 723.29 498.66 723.29 L 515.00 723.29 L 775.90 633.60 C 775.90 633.60 797.64 625.07 797.64 595.60 C 797.64 595.60 796.18 568.17 784.05 557.60 Z" fill="url(#未命名的渐变_39)" fill-rule="evenodd" group-id="2,3" id="形状_1_拷贝_3" node-id="35" stroke="none" target-height="165.69" target-width="298.98" target-x="498.66" target-y="557.6"></path></g><g node-id="73"><path d="M 698.76 531.55 C 693.55 534.53 686.92 532.74 683.91 527.55 L 639.10 450.36 C 645.84 447.35 651.84 442.90 656.66 437.31 L 702.76 516.78 C 705.74 521.94 703.98 528.53 698.83 531.52 L 698.78 531.52 Z" fill="#d8d9db" fill-rule="evenodd" group-id="2,4" id="圆角矩形_1" node-id="37" stroke="none" target-height="97.22125" target-width="66.64325" target-x="639.1" target-y="437.31"></path><path d="M 667.00 455.14 L 671.39 462.73 C 668.32 470.17 663.57 476.79 657.50 482.08 L 647.50 464.87 Z" fill="#bfc0c2" fill-rule="evenodd" group-id="2,4" id="形状_7" node-id="38" stroke="none" target-height="26.939972" target-width="23.890015" target-x="647.5" target-y="455.14"></path><path d="M 552.00 397.12 C 552.00 441.00 580.64 477.00 617.23 481.00 C 614.97 481.26 612.70 481.39 610.43 481.41 C 570.65 481.41 538.43 443.68 538.43 397.15 C 538.43 350.62 570.68 312.89 610.43 312.89 C 612.70 312.90 614.97 313.04 617.23 313.29 C 580.64 317.27 552.00 353.27 552.00 397.12 Z" fill="#d8d9db" fill-rule="evenodd" group-id="2,4" id="椭圆_3_拷贝" node-id="39" stroke="none" target-height="168.51999" target-width="78.79999" target-x="538.43" target-y="312.89"></path><path d="M 624.00 481.38 C 584.22 481.38 552.00 443.65 552.00 397.12 C 552.00 350.59 584.25 312.86 624.00 312.86 C 663.75 312.86 696.00 350.59 696.00 397.12 C 696.00 443.65 663.80 481.38 624.00 481.38 Z M 614.51 340.00 C 590.49 340.00 571.00 365.00 571.00 395.76 C 571.00 426.52 590.47 451.48 614.49 451.48 C 638.51 451.48 657.98 426.48 657.98 395.76 C 657.98 365.04 638.52 340.00 614.51 340.00 Z" fill="#fcfcfc" fill-rule="evenodd" group-id="2,4" id="椭圆_3" node-id="40" stroke="none" target-height="168.52002" target-width="144" target-x="552" target-y="312.86"></path><path d="M 621.30 454.20 C 611.89 454.14 602.74 451.13 595.14 445.59 C 600.90 449.38 607.63 451.43 614.53 451.48 C 638.53 451.48 658.01 426.48 658.01 395.76 C 658.01 365.04 638.55 340.05 614.53 340.05 C 607.63 340.10 600.90 342.14 595.14 345.93 C 602.75 340.40 611.90 337.39 621.30 337.32 C 649.07 337.32 671.59 363.49 671.59 395.76 C 671.59 428.03 649.07 454.20 621.30 454.20 Z" fill="#d8d9db" fill-rule="evenodd" group-id="2,4" id="椭圆_4" node-id="41" stroke="none" target-height="116.880005" target-width="76.45001" target-x="595.14" target-y="337.32"></path></g></g></svg>