<?xml version="1.0" encoding="UTF-8"?>
<svg width="273px" height="50px" viewBox="0 0 273 50" version="1.1" xmlns="http://www.w3.org/2000/svg" xmlns:xlink="http://www.w3.org/1999/xlink">
    <title>logo-白</title>
    <g id="通用" stroke="none" stroke-width="1" fill="none" fill-rule="evenodd">
        <g id="02登录-错误提示" transform="translate(-263.000000, -35.000000)" fill="#FFFFFF" fill-rule="nonzero">
            <g id="logo-白" transform="translate(263.000000, 35.000000)">
                <path d="M84.34,38.94 L84.34,32.67 L93.73,32.67 L93.73,34.62 C93.73,35.49 93.28,35.94 92.44,35.94 L89.41,35.85 L90.22,38.88 L93.49,38.88 C95.71,38.88 96.85,37.68 96.85,35.31 L96.85,19.41 L90.58,19.41 L90.58,11.46 L87.4,11.46 L87.4,19.41 L81.19,19.41 L81.19,38.94 L84.34,38.94 Z M77.41,18.3 L79.63,16.05 C78.19,14.58 76.45,13.11 74.38,11.61 L72.16,13.77 C74.44,15.39 76.18,16.89 77.41,18.3 Z M82.93,18.33 L85.39,17.1 C84.37,15.3 83.35,13.62 82.27,12.12 L79.69,13.35 C80.86,14.85 81.94,16.5 82.93,18.33 Z M94.75,18.69 C96.1,16.95 97.21,15.18 98.05,13.32 L95.5,12.12 C94.72,13.86 93.67,15.63 92.35,17.43 L94.75,18.69 Z M76.27,25.35 L78.49,23.13 C77.14,21.63 75.49,20.13 73.54,18.63 L71.32,20.79 C73.45,22.44 75.1,23.97 76.27,25.35 Z M93.73,24.93 L84.34,24.93 L84.34,22.44 L93.73,22.44 L93.73,24.93 Z M74.5,38.82 C76.24,35.43 77.8,31.8 79.24,27.96 L76.48,26.88 C75.1,30.51 73.48,34.05 71.62,37.53 L74.5,38.82 Z M93.73,30.03 L84.34,30.03 L84.34,27.57 L93.73,27.57 L93.73,30.03 Z M128.56,28.65 L128.56,13.32 L119.2,13.32 C119.5,12.75 119.74,12.15 119.92,11.52 L116.62,11.07 C116.44,11.85 116.17,12.6 115.81,13.32 L109.18,13.32 L109.18,28.65 L128.56,28.65 Z M125.53,17.67 L112.21,17.67 L112.21,15.99 L125.53,15.99 L125.53,17.67 Z M125.53,21.81 L112.21,21.81 L112.21,20.13 L125.53,20.13 L125.53,21.81 Z M125.53,26.01 L112.21,26.01 L112.21,24.27 L125.53,24.27 L125.53,26.01 Z M120.01,34.56 L122.38,32.94 C121.6,31.83 120.49,30.54 119.11,29.04 L116.8,30.48 C118.15,31.98 119.23,33.36 120.01,34.56 Z M130.15,37.5 L132.67,35.76 C131.71,34.02 130.39,31.98 128.65,29.64 L126.19,31.17 C127.87,33.51 129.19,35.61 130.15,37.5 Z M122.68,38.67 C123.88,38.67 124.78,38.43 125.38,37.98 C126.01,37.5 126.46,35.97 126.73,33.39 L123.73,32.4 C123.64,34.08 123.46,35.1 123.16,35.43 C122.92,35.73 122.56,35.91 122.08,35.91 L115.96,35.91 C115.36,35.91 115.09,35.58 115.09,34.98 L115.09,30.27 L111.91,30.27 L111.91,35.67 C111.91,37.65 112.96,38.67 115.06,38.67 L122.68,38.67 Z M107.59,38.16 C108.82,36.12 109.78,33.69 110.47,30.9 L107.53,30.3 C107.05,32.46 106.18,34.53 104.95,36.45 L107.59,38.16 Z M140.53,39.15 C141.55,37.26 142.18,34.95 142.48,32.19 L144.61,32.19 L144.61,38.58 L147.19,38.58 L147.19,32.19 L149.29,32.19 L149.29,35.4 C149.29,36.15 149.05,36.54 148.6,36.54 C148.21,36.54 147.79,36.48 147.31,36.42 L148,38.94 L149.38,38.94 C151.06,38.94 151.9,38.07 151.9,36.33 L151.9,18.24 L148.84,18.24 C149.35,17.46 149.86,16.53 150.4,15.48 L150.4,13.35 L145.12,13.35 L145.75,11.91 L142.9,11.25 C141.58,14.4 140.08,16.83 138.34,18.57 L139.99,20.52 L139.99,29.46 C139.96,32.55 139.39,35.1 138.25,37.11 L140.53,39.15 Z M163.9,38.85 L166.57,38.19 C165.91,35.22 165.19,32.61 164.38,30.33 L161.83,31.17 C162.16,32.16 162.49,33.18 162.79,34.26 C162.13,34.38 161.44,34.53 160.75,34.68 L160.75,29.16 L165.43,29.16 L165.43,16.38 L160.75,16.38 L160.75,11.49 L157.78,11.49 L157.78,16.38 L153.16,16.38 L153.16,29.16 L157.78,29.16 L157.78,35.19 C156.1,35.43 154.42,35.64 152.68,35.82 L153.4,38.73 C156.94,38.22 160.3,37.59 163.45,36.87 C163.6,37.47 163.75,38.13 163.9,38.85 Z M145.69,18.24 L142.36,18.24 C142.87,17.52 143.38,16.74 143.86,15.9 L147.1,15.9 C146.62,16.77 146.14,17.55 145.69,18.24 Z M162.55,26.34 L160.63,26.34 L160.63,19.2 L162.55,19.2 L162.55,26.34 Z M157.9,26.34 L156.04,26.34 L156.04,19.2 L157.9,19.2 L157.9,26.34 Z M149.29,23.82 L147.19,23.82 L147.19,20.91 L149.29,20.91 L149.29,23.82 Z M144.61,23.82 L142.63,23.82 L142.63,20.91 L144.61,20.91 L144.61,23.82 Z M144.61,29.58 L142.63,29.58 L142.63,26.46 L144.61,26.46 L144.61,29.58 Z M149.29,29.58 L147.19,29.58 L147.19,26.46 L149.29,26.46 L149.29,29.58 Z M182.86,33.96 C185.8,31.98 187.99,29.16 189.43,25.5 C192.22,28.2 194.74,31.02 197.02,33.93 L199.3,31.68 C195.88,27.78 192.91,24.75 190.36,22.59 C190.51,21.99 190.66,21.39 190.78,20.76 L198.34,20.76 L198.34,17.7 L191.23,17.7 C191.41,16.14 191.5,14.52 191.5,12.78 L191.5,11.37 L188.38,11.37 L188.38,13.47 C188.35,14.91 188.26,16.32 188.14,17.7 L181.84,17.7 L181.84,20.76 L187.66,20.76 C186.58,25.65 184.36,29.19 180.94,31.38 L182.86,33.96 Z M178.12,18.54 L180.4,16.26 C178.99,14.7 177.28,13.17 175.27,11.61 L173.14,13.65 C175.3,15.39 176.95,17.04 178.12,18.54 Z M174.94,39.39 C176.47,36.63 177.52,35.25 178.12,35.25 C178.48,35.25 178.9,35.49 179.32,36 C180.22,37.02 181.3,37.71 182.59,38.07 C183.88,38.37 185.56,38.55 187.6,38.58 C189.61,38.61 191.47,38.64 193.18,38.64 L199.54,38.64 L200.29,35.49 C199.54,35.55 198.43,35.61 196.99,35.67 C195.55,35.7 194.14,35.73 192.76,35.73 C190.33,35.73 188.2,35.7 186.4,35.67 C184.54,35.61 183.16,35.34 182.23,34.92 C181.51,34.53 180.76,33.93 180.04,33.15 C179.92,33.03 179.8,32.94 179.68,32.82 L179.68,21.36 L172.69,21.36 L172.69,24.42 L176.71,24.42 L176.71,32.58 C175.51,33.24 174.13,34.8 172.63,37.26 L174.94,39.39 Z M221.62,39.36 L221.62,29.34 L229.12,29.34 L229.12,30.99 L232.27,30.99 L232.27,16.35 L221.62,16.35 L221.62,11.22 L218.38,11.22 L218.38,16.35 L207.76,16.35 L207.76,30.99 L210.91,30.99 L210.91,29.34 L218.38,29.34 L218.38,39.36 L221.62,39.36 Z M218.38,26.28 L210.91,26.28 L210.91,19.41 L218.38,19.41 L218.38,26.28 Z M229.12,26.28 L221.62,26.28 L221.62,19.41 L229.12,19.41 L229.12,26.28 Z M256.15,21.09 L258.76,19.29 C257.38,16.98 255.37,14.28 252.76,11.22 L250.18,12.84 C252.67,15.84 254.65,18.6 256.15,21.09 Z M257.77,38.16 C259.03,38.16 259.96,37.77 260.56,36.99 C261.22,36.18 261.67,33.63 261.91,29.34 L258.94,28.35 C258.82,31.62 258.64,33.57 258.34,34.2 C258.1,34.8 257.71,35.1 257.17,35.1 L252.07,35.1 C251.08,35.1 250.6,34.68 250.6,33.84 L250.6,17.64 L247.45,17.64 L247.45,34.53 C247.45,36.93 248.65,38.16 251.11,38.16 L257.77,38.16 Z M264.97,34.05 L267.85,32.73 C266.56,28.14 265.06,23.82 263.35,19.77 L260.35,20.76 C262.03,24.6 263.59,29.01 264.97,34.05 Z M242.47,35.19 C243.94,31.26 245.08,26.58 245.89,21.15 L242.86,20.52 C242.26,25.08 241.21,29.4 239.74,33.48 L242.47,35.19 Z" id="消息触达中心"></path>
                <path d="M24.9999004,0 C25.6198979,0 26.2348954,0.0225 26.843643,0.0670000195 C27.822052,0.1658848 28.6177664,0.210724816 29.0807606,0.861356569 C29.636792,1.64273071 29.636792,2.49477481 29.1857861,3.233003 C28.7347803,3.97123118 27.8812705,4.36236295 27.0276423,4.22200002 C26.1272059,4.18495061 25.4512919,4.16645061 24.9999004,4.16650002 C13.4939462,4.16650002 4.16673343,13.494 4.16673343,25 C4.16673343,36.506 13.4941962,45.83325 24.9999004,45.83325 C36.5058545,45.83325 45.8330673,36.50575 45.8330673,25 C45.8330673,24.5438333 45.8147341,23.8679167 45.7780676,22.97225 C45.7780676,21.9999084 45.8610229,21.2431946 46.6912842,20.8037415 C47.5215454,20.3642883 48.4432286,20.4046259 49.1386976,20.9191235 C49.8341666,21.4336211 49.8341666,22.2142944 49.933051,23.15625 C49.9773008,23.765 50,24.38 50,25 C50,38.807 38.8068453,50 24.9999004,50 C11.1929554,50 0,38.807 0,25 C0,11.193 11.1929554,0 24.9999004,0 Z M35.4449944,13.75 C35.6137284,13.75 35.7655889,13.7978125 35.9005761,13.890625 C36.1789871,14.0903125 36.2886642,14.3603125 36.238044,14.6921875 L33.0236621,33.9775 C32.9814786,34.219375 32.8464914,34.4078125 32.6215128,34.5428125 C32.5062113,34.6075 32.3740363,34.6440625 32.2334247,34.6440625 C32.140621,34.6440625 32.0393806,34.6215625 31.9325158,34.579375 L26.2461814,32.25625 L23.2061578,35.963125 C23.0542973,36.1571875 22.8490043,36.25 22.5902789,36.25 C22.4834141,36.25 22.3906104,36.233125 22.3118679,36.199375 C22.1543828,36.1403125 22.0250201,36.0446875 21.9294042,35.9040625 C21.8337883,35.76625 21.7831681,35.614375 21.7831681,35.445625 L21.7831681,31.0665625 L32.6299495,17.7690625 L19.2099752,29.3846875 L14.252009,27.35125 C13.9426634,27.2359375 13.7739295,27.0053125 13.7514316,26.659375 C13.7345582,26.3246875 13.8667332,26.0771875 14.1535809,25.916875 L35.0428451,13.8625 C35.1693956,13.7865625 35.3015705,13.75 35.4449944,13.75 Z M41,6 C42.1045695,6 43,6.8954305 43,8 C43,9.1045695 42.1045695,10 41,10 C39.8954305,10 39,9.1045695 39,8 C39,6.8954305 39.8954305,6 41,6 Z" id="形状结合"></path>
            </g>
        </g>
    </g>
</svg>