<?xml version="1.0" encoding="UTF-8"?>
<svg width="64px" height="64px" viewBox="0 0 64 64" version="1.1" xmlns="http://www.w3.org/2000/svg" xmlns:xlink="http://www.w3.org/1999/xlink">
    <!-- Generator: Sketch 53.2 (72643) - https://sketchapp.com -->
    <title>search-empty</title>
    <desc>Created with Sketch.</desc>
    <g id="列表视图" stroke="none" stroke-width="1" fill="none" fill-rule="evenodd">
        <g id="列表视图-搜索空" transform="translate(-771.000000, -346.000000)">
            <g id="no-match" transform="translate(690.000000, 346.000000)">
                <g id="search-empty" transform="translate(81.000000, 0.000000)">
                    <rect id="Rectangle" x="0" y="0" width="64" height="64"></rect>
                    <path d="M22,25 L3,25 C2.447,25 2,24.552 2,24 C2,23.448 2.447,23 3,23 L22,23 C22.553,23 23,23.448 23,24 C23,24.552 22.553,25 22,25 Z" id="Path" fill="#202D40" fill-rule="nonzero" opacity="0.300000012"></path>
                    <path d="M22,41 L3,41 C2.447,41 2,40.552 2,40 C2,39.448 2.447,39 3,39 L22,39 C22.553,39 23,39.448 23,40 C23,40.552 22.553,41 22,41 Z" id="Path" fill="#202D40" fill-rule="nonzero" opacity="0.300000012"></path>
                    <path d="M42,57 L3,57 C2.447,57 2,56.552 2,56 C2,55.448 2.447,55 3,55 L42,55 C42.553,55 43,55.448 43,56 C43,56.552 42.553,57 42,57 Z" id="Path" fill="#202D40" fill-rule="nonzero" opacity="0.300000012"></path>
                    <path d="M57,9 L3,9 C2.447,9 2,8.552 2,8 C2,7.448 2.447,7 3,7 L57,7 C57.553,7 58,7.448 58,8 C58,8.552 57.553,9 57,9 Z" id="Path" fill="#202D40" fill-rule="nonzero" opacity="0.300000012"></path>
                    <path d="M62.707,49.879 L52.607,39.779 C52.565,39.737 52.511,39.717 52.463,39.684 C54.05,37.528 55,34.876 55,32 C55,24.832 49.168,19 42,19 C34.832,19 29,24.832 29,32 C29,39.168 34.832,45 42,45 C44.876,45 47.528,44.05 49.683,42.463 C49.716,42.51 49.736,42.564 49.778,42.607 L59.878,52.707 C60.269,53.098 60.902,53.098 61.292,52.707 L62.706,51.293 C63.097,50.903 63.097,50.269 62.707,49.879 Z M31,32 C31,25.935 35.935,21 42,21 C48.065,21 53,25.935 53,32 C53,38.065 48.065,43 42,43 C35.935,43 31,38.065 31,32 Z" id="Shape" fill="#202D40" fill-rule="nonzero"></path>
                </g>
            </g>
        </g>
    </g>
</svg>