<?xml version="1.0" encoding="UTF-8"?>
<svg width="14px" height="14px" viewBox="0 0 14 14" version="1.1" xmlns="http://www.w3.org/2000/svg" xmlns:xlink="http://www.w3.org/1999/xlink">
    <!-- Generator: Sketch 58 (84663) - https://sketch.com -->
    <title>地点</title>
    <desc>Created with Sketch.</desc>
    <g id="页面-1" stroke="none" stroke-width="1" fill="none" fill-rule="evenodd">
        <g id="3-金华小微通（帮帮快服）-培训服务-培训详情" transform="translate(-545.000000, -257.000000)" fill="#999999" fill-rule="nonzero">
            <g id="编组-12" transform="translate(160.000000, 180.000000)">
                <g id="编组-2" transform="translate(385.000000, 43.000000)">
                    <g id="地点" transform="translate(0.000000, 34.000000)">
                        <path d="M6.96510736,11.6806461 C6.81916219,11.6806461 6.67489456,11.6353528 6.55243482,11.5447661 C6.3712615,11.4122412 2.10194594,8.24170821 2.10194594,4.87154908 C2.10194594,2.18917753 4.28441334,0.0067101227 6.96678489,0.0067101227 C9.64915644,0.0067101227 11.8316238,2.18917753 11.8316238,4.87154908 C11.8316238,8.24170821 7.56230828,11.4122412 7.38113497,11.5447661 C7.25532017,11.6370303 7.11105253,11.6806461 6.96510736,11.6806461 Z M6.96510736,1.40577071 C5.05439992,1.40577071 3.49932899,2.96084164 3.49932899,4.87154908 C3.49932899,6.84264762 5.71534701,9.06873083 6.96510736,10.0937021 C8.21486771,9.0670533 10.4308871,6.83761503 10.4308871,4.87154908 C10.4325633,2.96084164 8.87749233,1.40577071 6.96510736,1.40577071 L6.96510736,1.40577071 Z" id="形状"></path>
                        <path d="M6.96510736,7.23854486 C5.66166603,7.23854486 4.59978911,6.17666794 4.59978911,4.87322661 C4.59978911,3.56978528 5.66166603,2.50790836 6.96510736,2.50790836 C8.2685487,2.50790836 9.33042561,3.56978528 9.33042561,4.87322661 C9.33042561,6.17666794 8.27022623,7.23854486 6.96510736,7.23854486 L6.96510736,7.23854486 Z M6.96510736,3.90529141 C6.43165261,3.90529141 5.99884969,4.33977186 5.99884969,4.87154908 C5.99884969,5.4033263 6.43165261,5.83780675 6.96510736,5.83780675 C7.49856212,5.83780675 7.93136503,5.4033263 7.93136503,4.87154908 C7.93136503,4.33977186 7.49856212,3.90529141 6.96510736,3.90529141 L6.96510736,3.90529141 Z M7.00033551,13.9939609 C3.63353144,13.9939609 0.010065184,13.150163 0.010065184,11.2964916 C0.010065184,10.6791603 0.42273773,9.81355445 2.39048121,9.20125575 C2.75786043,9.08718367 3.15040261,9.29184241 3.26615222,9.66089916 C3.38022431,10.0299559 3.17388804,10.4208206 2.80650882,10.5365702 C1.72617906,10.8720763 1.42925613,11.2277128 1.40912577,11.3048792 C1.50474502,11.6470955 3.3684816,12.5932228 7.00033551,12.5932228 C10.6338669,12.5932228 12.4976035,11.6454179 12.5932228,11.2847488 C12.5714149,11.2243577 12.2627492,10.8569785 11.130416,10.5147623 C10.7613593,10.4040452 10.5516679,10.0131806 10.662385,9.64244632 C10.7747795,9.27338957 11.1639666,9.06369824 11.5347009,9.17441526 C13.564513,9.78671396 13.9906058,10.6640625 13.9906058,11.2931365 C13.9906058,13.1484854 10.3671396,13.9939609 7.00033551,13.9939609 Z" id="形状"></path>
                    </g>
                </g>
            </g>
        </g>
    </g>
</svg>