<svg width="16" height="16" viewBox="0 0 16 16" fill="none" xmlns="http://www.w3.org/2000/svg">
<g id="Frame" clip-path="url(#clip0_937_6210)">
<path id="Vector" d="M3.88531 4.66686L5.57598 6.35753L4.63331 7.30019L1.33331 4.0002L4.63331 0.700195L5.57598 1.64286L3.88531 3.33353H8.66665C10.0811 3.33353 11.4377 3.89543 12.4379 4.89563C13.4381 5.89582 14 7.25237 14 8.66686C14 10.0813 13.4381 11.4379 12.4379 12.4381C11.4377 13.4383 10.0811 14.0002 8.66665 14.0002H2.66665V12.6669H8.66665C9.72751 12.6669 10.7449 12.2454 11.4951 11.4953C12.2452 10.7451 12.6666 9.72773 12.6666 8.66686C12.6666 7.606 12.2452 6.58858 11.4951 5.83843C10.7449 5.08829 9.72751 4.66686 8.66665 4.66686H3.88531Z" fill="#158DFF"/>
</g>
<defs>
<clipPath id="clip0_937_6210">
<rect width="16" height="16" fill="white"/>
</clipPath>
</defs>
</svg>
