<svg width="14" height="14" viewBox="0 0 14 14" fill="none" xmlns="http://www.w3.org/2000/svg">
<path fill-rule="evenodd" clip-rule="evenodd" d="M9.97056 8.75509C10.6185 7.84752 11 6.73456 11 5.53198C11 2.47675 8.53757 0 5.5 0C2.46243 0 0 2.47675 0 5.53198C0 8.58721 2.46243 11.064 5.5 11.064C6.61507 11.064 7.65263 10.7302 8.51933 10.1566L12.5997 14L14 12.4878L9.97056 8.75509ZM5.5 9.05233C3.567 9.05233 2 7.47622 2 5.53198C2 3.58774 3.567 2.01163 5.5 2.01163C7.433 2.01163 9 3.58774 9 5.53198C9 7.47622 7.433 9.05233 5.5 9.05233Z" fill="white"/>
</svg>
