<svg width="16" height="16" viewBox="0 0 16 16" fill="none" xmlns="http://www.w3.org/2000/svg">
<path d="M4.66667 4.83333C4.66667 2.99238 6.15906 1.5 8.00001 1.5C9.84095 1.5 11.3333 2.99238 11.3333 4.83333V5.16667H13C13.7364 5.16667 14.3333 5.76362 14.3333 6.5V13.1667C14.3333 13.903 13.7364 14.5 13 14.5H3.00001C2.26363 14.5 1.66667 13.903 1.66667 13.1667V6.5C1.66667 5.76362 2.26363 5.16667 3.00001 5.16667H4.66667V4.83333ZM6.00001 5.16667H10V4.83333C10 3.72876 9.10457 2.83333 8.00001 2.83333C6.89544 2.83333 6.00001 3.72876 6.00001 4.83333V5.16667ZM3.00001 6.5V13.1667H13V6.5H3.00001ZM8.00001 9.16667C7.63182 9.16667 7.33334 9.46514 7.33334 9.83333C7.33334 10.2015 7.63182 10.5 8.00001 10.5C8.3682 10.5 8.66667 10.2015 8.66667 9.83333C8.66667 9.46514 8.3682 9.16667 8.00001 9.16667ZM6.00001 9.83333C6.00001 8.72876 6.89544 7.83333 8.00001 7.83333C9.10458 7.83333 10 8.72876 10 9.83333C10 10.9379 9.10458 11.8333 8.00001 11.8333C6.89544 11.8333 6.00001 10.9379 6.00001 9.83333Z" fill="#158DFF"/>
</svg>
