<?xml version="1.0" encoding="UTF-8"?>
<svg width="15px" height="15px" viewBox="0 0 15 15" version="1.1" xmlns="http://www.w3.org/2000/svg" xmlns:xlink="http://www.w3.org/1999/xlink">
    <title>编组 2</title>
    <defs>
        <circle id="path-1" cx="6.95454545" cy="6.95454545" r="6.95454545"></circle>
    </defs>
    <g id="CI" stroke="none" stroke-width="1" fill="none" fill-rule="evenodd">
        <g id="卡片设计说明" transform="translate(-636.000000, -2032.000000)">
            <g id="编组-12" transform="translate(166.000000, 2030.000000)">
                <g id="编组" transform="translate(469.000000, 1.000000)">
                    <g id="编组-2" transform="translate(1.545455, 1.545455)">
                        <mask id="mask-2" fill="white">
                            <use xlink:href="#path-1"></use>
                        </mask>
                        <g id="椭圆形"></g>
                        <g id="编组" mask="url(#mask-2)" fill-rule="nonzero">
                            <g id="编组-12">
                                <polygon id="路径" fill="#FD0013" points="0 0 26.8246753 0 26.8246753 18.8766234 0 18.8766234"></polygon>
                                <path d="M4.36203053,3.43281779 L5.26826956,5.19959536 L7.23178746,5.49405828 L5.72138908,6.81914145 L6.02346876,8.73315047 L4.36203053,7.84976168 L2.54955248,8.88038194 L2.85163215,6.9663729 L1.34123377,5.64128975 L3.30475167,5.34682681 L4.36203053,3.43281779 L4.36203053,3.43281779 Z M11.7629826,7.55529876 L11.9140225,7.99699316 L12.5181818,8.14422461 L12.0650623,8.43868755 L12.2161021,9.02761339 L11.7629826,8.73315047 L11.1588233,9.02761339 L11.3098631,8.43868755 L10.8567436,8.14422461 L11.460903,7.99699316 L11.7629826,7.55529876 L11.7629826,7.55529876 Z M9.79946473,2.69666048 L9.79946473,3.28558634 L10.2525842,3.58004926 L9.79946473,3.87451219 L9.6484249,4.31620658 L9.19530538,3.87451219 L8.59114602,3.87451219 L9.04426554,3.58004926 L8.74218587,2.9911234 L9.34634521,3.13835487 L9.79946473,2.69666048 L9.79946473,2.69666048 Z M12.367142,5.05236389 L12.0650623,5.49405828 L12.2161021,5.93575267 L11.7629826,5.7885212 L11.3098631,6.23021559 L11.3098631,5.64128975 L10.7057038,5.34682681 L11.3098631,5.19959536 L11.460903,4.6106695 L11.7629826,5.05236389 L12.367142,5.05236389 L12.367142,5.05236389 Z M10.4036241,10.499928 L9.95050458,10.6471595 L9.79946473,11.2360853 L9.34634521,10.794391 L8.74218587,10.9416224 L9.04426554,10.499928 L8.74218587,9.91100217 L9.34634521,10.0582336 L9.79946473,9.61653925 L9.79946473,10.2054651 L10.4036241,10.499928 L10.4036241,10.499928 Z" id="形状" fill="#FFFD43"></path>
                            </g>
                        </g>
                    </g>
                </g>
            </g>
        </g>
    </g>
</svg>