<?xml version="1.0" encoding="UTF-8"?>
<svg width="24px" height="24px" viewBox="0 0 24 24" version="1.1" xmlns="http://www.w3.org/2000/svg" xmlns:xlink="http://www.w3.org/1999/xlink">
    <!-- Generator: Sketch 63.1 (92452) - https://sketch.com -->
    <title>Content / CI / Status / Failure</title>
    <desc>Created with Sketch.</desc>
    <g id="Content-/-CI-/-Status-/-Failure" stroke="none" stroke-width="1" fill="none" fill-rule="evenodd">
        <circle id="Oval" fill="#FF6046" cx="12" cy="12" r="12"></circle>
        <path d="M13.6445154,11.8124885 L16.3788839,14.546857 C16.542946,14.7109191 16.6249771,14.9114393 16.6249771,15.1484181 C16.6249771,15.3853968 16.542946,15.5950315 16.3788839,15.7773228 L15.7773228,16.3788839 C15.5950315,16.542946 15.3853968,16.6249771 15.1484181,16.6249771 C14.9114393,16.6249771 14.7109191,16.542946 14.546857,16.3788839 L11.8124885,13.6445154 L9.07812005,16.3788839 C8.91405794,16.542946 8.71353772,16.6249771 8.47655898,16.6249771 C8.23958024,16.6249771 8.0299456,16.542946 7.84765423,16.3788839 L7.24609316,15.7773228 C7.08203105,15.5950315 7,15.3853968 7,15.1484181 C7,14.9114393 7.08203105,14.7109191 7.24609316,14.546857 L9.98046164,11.8124885 L7.24609316,9.07812005 C7.08203105,8.91405794 7,8.71353772 7,8.47655898 C7,8.23958024 7.08203105,8.0299456 7.24609316,7.84765423 L7.84765423,7.24609316 C8.0299456,7.08203105 8.23958024,7 8.47655898,7 C8.71353772,7 8.91405794,7.08203105 9.07812005,7.24609316 L11.8124885,9.98046164 L14.546857,7.24609316 C14.7109191,7.08203105 14.9114393,7 15.1484181,7 C15.3853968,7 15.5950315,7.08203105 15.7773228,7.24609316 L16.3788839,7.84765423 C16.542946,8.0299456 16.6249771,8.23958024 16.6249771,8.47655898 C16.6249771,8.71353772 16.542946,8.91405794 16.3788839,9.07812005 L13.6445154,11.8124885 Z" id="times" fill="#FFFFFF"></path>
    </g>
</svg>