<?xml version="1.0" encoding="UTF-8"?>
<svg width="16px" height="16px" viewBox="0 0 16 16" version="1.1" xmlns="http://www.w3.org/2000/svg" xmlns:xlink="http://www.w3.org/1999/xlink">
    <title>主办人</title>
    <g id="页面-1" stroke="none" stroke-width="1" fill="none" fill-rule="evenodd">
        <g id="14-1案件详情" transform="translate(-113.000000, -157.000000)" fill="#F6B700">
            <g id="右" transform="translate(-1.000000, 0.000000)">
                <path d="M122,157 C117.5817,157 114,160.581171 114,165.000039 C114,169.41779 117.5817,173.000078 122.00002,173.000078 C126.418359,173.000078 130,169.417809 130,165.000039 C130,160.581171 126.418339,157 122,157 Z M127.5885,168.533522 C127.381041,168.860946 127.145424,169.167467 126.885376,169.452615 C125.675135,170.779722 123.937581,171.617675 122,171.617675 C120.062419,171.617675 118.324865,170.779722 117.114624,169.452595 C116.855909,169.168918 116.621332,168.864201 116.414638,168.538659 C116.419658,168.362771 116.433305,168.187137 116.464051,168.033778 C116.582448,167.447306 116.596174,167.21214 118.437653,166.661532 C119.315411,166.39964 119.684993,166.214123 119.950748,165.998017 C120.216876,165.781833 120.334449,165.421486 120.438335,165.201537 L120.668559,165.145025 C120.616635,164.854112 120.436433,164.831935 120.360822,164.625771 C120.331821,164.31572 120.302036,164.005709 120.272642,163.695638 C120.274152,163.710208 120.060752,163.656676 120.032888,163.639126 C119.731662,163.450512 119.455201,162.606696 119.530792,162.296685 C119.596853,162.024851 119.885883,162.102776 119.885883,162.102776 C119.384178,160.359398 119.972161,159.217807 120.71862,158.97572 C121.236737,158.765751 122.204223,158.376286 123.106433,158.931463 L123.330519,159.139118 C123.330519,159.139118 123.674924,159.149059 123.852088,159.354479 C124.130804,159.67751 124.230847,160.515168 124.211728,160.909967 C124.181982,161.518558 124.064782,161.833923 123.976563,162.054637 C123.944444,162.133267 124.163236,161.985889 124.254514,162.120306 C124.490444,162.465417 124.201042,163.293996 123.925385,163.507004 C123.802458,163.602458 123.705455,163.558163 123.705455,163.558163 C123.699357,163.78423 123.622216,164.307347 123.549684,164.53712 C123.466466,164.797561 123.255301,164.815836 123.239261,165.157241 C123.342755,165.171712 123.445857,165.186223 123.549684,165.201498 C123.652786,165.421447 123.842911,165.864326 124.036879,165.997978 C124.230062,166.131571 124.553819,166.273655 124.753925,166.353795 C125.069681,166.478996 126.38424,166.931816 126.632406,167.07237 C127.227251,167.408363 127.5885,167.986384 127.5885,168.426283 C127.5885,168.459323 127.5885,168.499286 127.5885,168.533522 Z M122.281932,166.660787 L122.443781,166.167082 L121.99998,166.167082 L121.556199,166.167082 L121.718029,166.660787 L121.014454,170.544557 L121.99998,171.131853 L122.985526,170.544557 L122.281932,166.660787 Z" id="主办人"></path>
            </g>
        </g>
    </g>
</svg>