<svg width="22" height="17" viewBox="0 0 22 17" fill="none" xmlns="http://www.w3.org/2000/svg">
<path fill-rule="evenodd" clip-rule="evenodd" d="M21.8543 9.1698C22.0486 8.74276 22.0486 8.25384 21.8543 7.8268C19.4624 2.62072 15.8469 0 11 0C6.15037 0 2.53687 2.62072 0.145743 7.8302C-0.0485811 8.25724 -0.0485811 8.74616 0.145743 9.1732C2.53756 14.3793 6.15312 17 11 17C15.8496 17 19.4631 14.3793 21.8543 9.1698ZM20.1506 8.5C18.0517 12.99 15.0721 15.1232 11 15.1232C6.93 15.1232 3.95037 12.99 1.84937 8.5C3.95037 4.00996 6.93 1.8768 11 1.8768C15.07 1.8768 18.0503 4.00996 20.1506 8.5ZM10.8989 3.91136C13.3513 3.91136 15.3402 5.96564 15.3402 8.5C15.3402 11.0344 13.3513 13.0886 10.8989 13.0886C8.44662 13.0886 6.45837 11.0344 6.45837 8.5C6.45837 5.96564 8.44662 3.91136 10.8996 3.91136H10.8989ZM13.7246 8.5C13.7246 10.1143 12.4609 11.4199 10.8989 11.4199C9.33762 11.4199 8.07331 10.1136 8.07331 8.5C8.07331 6.88568 9.33762 5.58008 10.8989 5.58008C12.4609 5.58008 13.7246 6.88636 13.7246 8.5Z" fill="#999999"/>
</svg>
