<svg width="22" height="11" viewBox="0 0 22 11" fill="none" xmlns="http://www.w3.org/2000/svg">
<path d="M21.9453 1.29732C21.2082 2.47108 20.3008 3.52887 19.2528 4.43605L21.2056 6.37159C21.4956 6.68044 21.4932 7.16224 21.1999 7.46807C20.9066 7.7739 20.4252 7.79676 20.1043 7.52008L17.9636 5.51558C16.8506 6.24387 15.6239 6.7815 14.334 7.10634L15.3258 9.84321C15.473 10.1176 15.445 10.4529 15.2545 10.6992C15.0604 10.9356 14.7513 11.0448 14.4518 10.983C14.1523 10.9211 13.9118 10.6982 13.8273 10.4044L12.7237 7.44161C12.1495 7.5158 11.5711 7.55233 10.9921 7.55099C10.4131 7.55334 9.83465 7.5168 9.26056 7.44161L8.15692 10.4068C7.99605 10.8189 7.53727 11.0293 7.11987 10.8823C6.90883 10.8065 6.73731 10.6487 6.64417 10.4448C6.55026 10.2413 6.54509 10.0079 6.6299 9.80041L7.74543 7.10396C6.466 6.77023 5.24852 6.23313 4.13957 5.5132L2.06786 7.55813C1.75365 7.83908 1.27843 7.83908 0.96422 7.55813C0.65272 7.23862 0.65272 6.72914 0.96422 6.40964L2.84089 4.50738C1.77862 3.57657 0.85864 2.49504 0.110326 1.29732C-0.0755963 0.985418 -0.0224072 0.58662 0.238767 0.334308C0.413757 0.173797 0.647568 0.0931498 0.884335 0.111635C1.1211 0.130119 1.33956 0.246076 1.4875 0.431798C3.45062 3.82084 7.05587 5.92387 10.9731 5.96499C14.8999 5.96104 18.5216 3.84786 20.4563 0.431798C20.5269 0.293301 20.6381 0.179648 20.7751 0.106037C21.0295 -0.0353456 21.3389 -0.0353456 21.5933 0.106037C21.8436 0.241892 21.9997 0.503698 22 0.788471C21.9882 0.958504 21.966 1.12765 21.9334 1.29495L21.9453 1.29732Z" fill="#999999"/>
</svg>
