<?xml version="1.0" encoding="UTF-8"?>
<svg width="14px" height="14px" viewBox="0 0 14 14" version="1.1" xmlns="http://www.w3.org/2000/svg" xmlns:xlink="http://www.w3.org/1999/xlink">
    <!-- Generator: Sketch 58 (84663) - https://sketch.com -->
    <title>提示信息</title>
    <desc>Created with Sketch.</desc>
    <g id="页面-1" stroke="none" stroke-width="1" fill="none" fill-rule="evenodd">
        <g id="2数据质量管理-质量模型管理-质量模型-新建模型-新增表单规则" transform="translate(-280.000000, -377.000000)" fill="#ABD3FF" fill-rule="nonzero">
            <g id="编组-7" transform="translate(270.000000, 283.000000)">
                <g id="提示信息" transform="translate(10.000000, 94.000000)">
                    <path d="M7,0.000293794922 C3.13415505,0.000293794922 0.000293794922,3.13415504 0.000293794922,7 C0.000293794922,10.865845 3.13415504,13.9997062 7,13.9997062 C10.865761,13.9997062 13.9997062,10.865845 13.9997062,7 C13.9997062,3.13415504 10.865761,0.000293794922 7,0.000293794922 Z M8.89403584,10.9284945 C8.48236495,11.070764 8.15889026,11.1804776 7.91267121,11.2582649 C7.66986583,11.3359682 7.3848091,11.3748059 7.06133442,11.3748059 C6.56531472,11.3748059 6.17814122,11.2646446 5.90392715,11.0510654 C5.62594962,10.8310925 5.48875864,10.5595087 5.48875864,10.2229109 C5.48875864,10.0934986 5.49925153,9.96401641 5.52016734,9.82821049 C5.5416008,9.69241856 5.57652113,9.53694197 5.61895436,9.36859412 L6.13229431,7.74422544 C6.17814122,7.58918256 6.15216085,7.44691302 6.18408721,7.30429372 C6.21576173,7.16850179 6.22966831,7.03908953 6.22966831,6.92927797 C6.22966831,6.71534902 6.24926902,6.57307947 6.15407756,6.49529222 C6.05537449,6.41120923 5.87636585,6.43535685 5.60529963,6.43535685 C5.47125651,6.43535685 5.33414947,6.4546078 5.19712638,6.48698185 C5.05643776,6.52591745 4.9369168,6.49529222 4.83821372,6.53422782 L4.97575446,6.02938011 C5.30972203,5.90636152 5.63319672,5.80294363 5.93961696,5.71876271 C6.2457714,5.62828606 6.53738967,5.58944839 6.8084559,5.58944839 C7.30439165,5.58944839 7.68473777,5.69313209 7.95185867,5.90671129 C8.21916144,6.12029048 8.51472505,6.39835196 8.51472505,6.73494974 C8.51472505,6.8062594 8.50378447,6.92927799 8.48628233,7.11039919 C8.46886414,7.28504278 8.43352409,7.44691303 8.38417955,7.59556224 L7.70880143,9.21321544 C7.66986583,9.3426277 7.63144788,9.49162668 7.59960547,9.65997454 C7.56425143,9.8218448 7.54684723,9.95124307 7.54684723,10.03534 C7.54684723,10.2489192 7.60310309,10.3975685 7.70880143,10.4753557 C7.81791346,10.5527093 8.00436504,10.5915469 8.2679883,10.5915469 C8.39118876,10.5915469 8.5321432,10.572296 8.69015208,10.5337941 C8.84825888,10.4949424 8.96086853,10.4624844 9.03121285,10.4300264 L8.89403584,10.9284945 Z M8.80277572,4.36618772 C8.56706353,4.56690963 8.27892889,4.66384991 7.94461155,4.66384991 C7.61054606,4.66384991 7.32199169,4.56690963 7.07910237,4.36618772 C6.83989255,4.17185948 6.72037159,3.93264967 6.72037159,3.64776081 C6.72037159,3.36926563 6.83989255,3.12969206 7.07910237,2.9293339 C7.32199169,2.72896176 7.61056004,2.62519411 7.94461155,2.62519411 C8.27849518,2.62519411 8.56706353,2.72852806 8.80277572,2.9293339 C9.04198553,3.13005581 9.16177232,3.36969933 9.16177232,3.64776081 C9.16177232,3.93263567 9.04198553,4.17185948 8.80277572,4.36618772 Z" id="形状"></path>
                </g>
            </g>
        </g>
    </g>
</svg>