<?xml version="1.0" encoding="UTF-8"?>
<svg width="24px" height="24px" viewBox="0 0 24 24" version="1.1" xmlns="http://www.w3.org/2000/svg" xmlns:xlink="http://www.w3.org/1999/xlink">
    <!-- Generator: Sketch 63.1 (92452) - https://sketch.com -->
    <title>Content / CI / Status / Success</title>
    <desc>Created with Sketch.</desc>
    <g id="Content-/-CI-/-Status-/-Success" stroke="none" stroke-width="1" fill="none" fill-rule="evenodd">
        <circle id="Oval" fill="#3AC27D" cx="12" cy="12" r="12"></circle>
        <path d="M10.078125,16.8115183 L6.1640625,12.9005236 C6.05468738,12.7905758 6,12.6492145 6,12.4764398 C6,12.303665 6.05468738,12.1623038 6.1640625,12.052356 L7.03125,11.2041885 C7.14062512,11.0785342 7.27734375,11.0157068 7.44140625,11.0157068 C7.60546875,11.0157068 7.75000012,11.0785342 7.875,11.2041885 L10.5,13.8429319 L16.125,8.18848168 C16.2499999,8.06282734 16.3945312,8 16.5585938,8 C16.7226562,8 16.8593749,8.06282734 16.96875,8.18848168 L17.8359375,9.03664921 C17.9453126,9.14659698 18,9.28795824 18,9.46073298 C18,9.63350773 17.9453126,9.77486899 17.8359375,9.88481675 L10.921875,16.8115183 C10.8124999,16.9371727 10.6718749,17 10.5,17 C10.3281251,17 10.1875001,16.9371727 10.078125,16.8115183 Z" id="c" fill="#FFFFFF" fill-rule="nonzero"></path>
    </g>
</svg>