<?xml version="1.0" encoding="UTF-8"?>
<svg width="24px" height="24px" viewBox="0 0 24 24" version="1.1" xmlns="http://www.w3.org/2000/svg" xmlns:xlink="http://www.w3.org/1999/xlink">
    <!-- Generator: Sketch 63.1 (92452) - https://sketch.com -->
    <title>Content / CI / Status / Aborted备份 2</title>
    <desc>Created with Sketch.</desc>
    <g id="Content-/-CI-/-Status-/-Aborted备份-2" stroke="none" stroke-width="1" fill="none" fill-rule="evenodd">
        <circle id="Oval" fill="#FFC229" cx="12" cy="12" r="12"></circle>
        <path d="M17.3749729,11 C17.6119516,11 17.8170293,11.0865885 17.9902058,11.259765 C18.1633823,11.4329415 18.2499708,11.6380192 18.2499708,11.8749979 L18.2499708,12.7499958 C18.2499708,12.9869746 18.1633823,13.1920522 17.9902058,13.3652287 C17.8170293,13.5384053 17.6119516,13.6249937 17.3749729,13.6249937 L6.87499791,13.6249937 C6.63801917,13.6249937 6.43294154,13.5384053 6.25976501,13.3652287 C6.08658847,13.1920522 6,12.9869746 6,12.7499958 L6,11.8749979 C6,11.6380192 6.08658847,11.4329415 6.25976501,11.259765 C6.43294154,11.0865885 6.63801917,11 6.87499791,11 L17.3749729,11 Z" id="minus" fill="#FFFFFF"></path>
    </g>
</svg>