<svg width="16" height="16" viewBox="0 0 16 16" fill="none" xmlns="http://www.w3.org/2000/svg">
<path d="M4.33334 5.00001C4.33334 2.97497 5.97496 1.33334 8.00001 1.33334C10.025 1.33334 11.6667 2.97497 11.6667 5.00001H10.3333C10.3333 3.71135 9.28867 2.66668 8.00001 2.66668C6.71134 2.66668 5.66667 3.71135 5.66667 5.00001V6.33334H13.3333C13.8856 6.33334 14.3333 6.78106 14.3333 7.33334V13.3333C14.3333 13.8856 13.8856 14.3333 13.3333 14.3333H2.66667C2.11439 14.3333 1.66667 13.8856 1.66667 13.3333V7.33334C1.66667 6.78106 2.11439 6.33334 2.66667 6.33334H4.33334V5.00001ZM3.00001 7.66668V13H13V7.66668H3.00001ZM8.66667 12V8.66668H7.33334V12H8.66667Z" fill="#333333"/>
</svg>
