<?xml version="1.0" encoding="UTF-8"?>
<svg width="120px" height="103px" viewBox="0 0 120 103" version="1.1" xmlns="http://www.w3.org/2000/svg" xmlns:xlink="http://www.w3.org/1999/xlink">
    <title>暂无数据</title>
    <g id="pc端" stroke="none" stroke-width="1" fill="none" fill-rule="evenodd">
        <g id="04-2批量征信查询" transform="translate(-998.000000, -654.000000)" fill-rule="nonzero">
            <g id="暂无数据" transform="translate(998.000000, 654.000000)">
                <path d="M59.8440826,102.725774 C27.0350625,102.725774 0.24451768,99.7102186 0.24451768,95.7921347 C0.24451768,91.8740508 26.7339252,88.8584949 59.8440826,88.8584949 C92.6531028,88.8584949 119.443648,91.8740507 119.443648,95.7921347 C119.443648,99.7102187 92.9542401,102.725774 59.8440826,102.725774 Z" id="路径" fill="#F6F6F6"></path>
                <path d="M97.715936,81.5566678 L101.165902,81.5582476 C105.737523,82.1910135 108.023333,84.7664588 108.023333,89.2845835 C108.023333,93.8027083 105.726214,96.6617762 101.131975,97.8617874 L22.7174504,97.8630132 C22.5751179,97.867172 22.4306755,97.869279 22.2840925,97.869279 C15.8163606,97.869279 12.8829869,91.8442934 12.8829869,90.1347443 L12.8829869,6.87096252 C12.8829869,1.73682263 16.6786285,-0.000535429698 19.6878662,-0.000535429698 L90.8672921,-0.000535429698 C95.0907838,-0.00487546252 97.7323347,2.75081523 97.7323347,6.87096252 L97.7320022,8.38521552 C97.7319864,8.45732281 97.73197,8.53200535 97.731953,8.60926316 L97.7310048,12.9279745 C97.7309731,13.0721891 97.7309409,13.2189789 97.7309081,13.368344 L97.7300124,17.4475562 C97.7299705,17.6381254 97.7299281,17.8312699 97.7298852,18.0269897 L97.7290506,21.8280737 C97.7290008,22.0546966 97.7289505,22.2838948 97.7288996,22.5156682 L97.7280938,26.185414 C97.7280373,26.44294 97.7279802,26.7030413 97.7279225,26.9657178 L97.727015,31.0990105 C97.7269516,31.3874396 97.7268877,31.678444 97.7268233,31.9720237 L97.7260226,35.6185921 C97.7259536,35.9327738 97.7258841,36.2495308 97.7258139,36.5688631 L97.7251676,39.5123855 C97.7250941,39.8471693 97.7250201,40.1845284 97.7249454,40.5244628 L97.7240226,44.7272874 C97.7239434,45.0878238 97.7238637,45.4509355 97.7237834,45.8166225 L97.7230455,49.177337 C97.7229618,49.5584755 97.7228776,49.9421893 97.7227928,50.3284783 L97.7220141,53.8746116 C97.7219259,54.2763522 97.7218372,54.6806681 97.7217478,55.0875592 L97.721205,57.559809 C97.7211134,57.9770011 97.7210212,58.3967685 97.7209285,58.8191112 L97.7200786,62.6897273 C97.7199825,63.1275215 97.7198858,63.567891 97.7197885,64.0108358 L97.7191982,66.6994074 C97.7190987,67.1526532 97.7189986,67.6084743 97.718898,68.0668706 L97.7182873,70.8481516 C97.7181844,71.3168489 97.7180809,71.7881216 97.7179768,72.2619694 L97.7170252,76.5961323 C97.7169178,77.0854318 97.7168098,77.5773065 97.7167012,78.0717564 L97.715936,81.5566678 Z" id="形状结合" fill="#DDDDDD"></path>
                <path d="M90.8793771,2.58663025 C93.1645757,2.58663025 95.152274,4.49765828 95.152274,7.73196767 L95.152274,81.5582476 L26.5968018,81.5582476 C26.5968018,81.5582476 27.9090522,82.4743738 28.6098633,84.3698079 C30.1277028,88.4750014 29.7512211,95.2825439 22.2667236,95.2825439 C17.5274885,95.2825439 15.4383545,91.6552002 15.4383545,90.1474223 L15.4383545,7.73196767 C15.4383545,5.19838064 17.4090402,2.58663025 19.7367292,2.58663025 Z M101.188686,84.1332738 C104.048689,84.9438011 105.47869,86.8027157 105.47869,89.7100175 C105.47869,92.6173193 104.030169,94.473728 101.133126,95.2792435 L29.1389858,95.2792435 C30.558321,93.9127208 31.3538358,91.9916516 31.5255301,89.516036 C31.6972245,87.0404203 31.4692495,85.2461663 30.8416051,84.1332738 Z" id="形状结合" fill="#FFFFFF"></path>
                <path d="M23.583815,14.5867052 L86.7052023,14.5867052 L86.7052023,28.4788054 L23.583815,28.4788054 Z M23.583815,35.4248555 L43.0057803,35.4248555 L43.0057803,38.8978805 L23.583815,38.8978805 Z M23.583815,45.8439306 L51.0123865,45.8439306 L51.0123865,49.3169557 L23.583815,49.3169557 Z M23.583815,56.2630058 L43.0057803,56.2630058 L43.0057803,59.7360308 L23.583815,59.7360308 Z M23.583815,66.6820809 L56.1849711,66.6820809 L56.1849711,70.155106 L23.583815,70.155106 Z" id="形状结合" fill="#F4F4F4"></path>
                <path d="M94.5086705,59.3887283 L105.606936,70.5024085 C106.99422,72.0652697 106.99422,74.322736 105.606936,75.7119461 C104.219653,77.1011561 101.791908,77.1011561 100.404624,75.7119461 L89.3063584,64.5982659 L94.5086705,59.3887283 Z M87.5722543,31.4308767 C94.6820809,38.550578 94.6820809,50.3588632 87.5722543,57.6522158 C80.4624277,64.9455684 68.6705202,64.9455684 61.3872832,57.6522158 C54.1040462,50.3588632 54.1040462,38.7242293 61.3872832,31.4308767 C68.4971098,24.1375241 80.2890173,24.1375241 87.5722543,31.4308767 Z" id="形状结合" fill="#FFFFFF"></path>
                <path d="M74.5714286,24.8916667 C85.4593279,24.8916667 94.2857143,33.7303119 94.2857143,44.6333333 C94.2857143,49.6875306 92.3890364,54.2981197 89.26955,57.7902955 L92.0801429,60.6036667 L94.5086705,58.1731696 L106.300578,69.9814547 C108.034682,71.7179672 108.034682,74.6700385 106.300578,76.4065511 C105.433526,77.2748073 104.219653,77.6221098 103.00578,77.6221098 C101.791908,77.6221098 100.751445,77.1011561 99.8843931,76.2328998 L88.0924855,64.5982659 L90.5201429,62.1666667 L87.7101425,59.3518688 C84.2228102,62.4756879 79.6186158,64.375 74.5714286,64.375 C63.6835292,64.375 54.8571429,55.5363548 54.8571429,44.6333333 C54.8571429,33.7303119 63.6835292,24.8916667 74.5714286,24.8916667 Z M94.5893555,61.2809347 L91.1570173,64.724117 L101.613072,74.8485107 C101.613072,74.8485107 103.24993,76.0980815 104.730259,74.8485107 C106.210589,73.59894 105.47869,72.1632853 105.086705,71.5490824 L94.5893555,61.2809347 Z M74.5714286,27.4666667 C65.10369,27.4666667 57.4285714,35.1524451 57.4285714,44.6333333 C57.4285714,54.1142215 65.10369,61.8 74.5714286,61.8 C84.0391671,61.8 91.7142857,54.1142215 91.7142857,44.6333333 C91.7142857,35.1524451 84.0391671,27.4666667 74.5714286,27.4666667 Z" id="形状结合" fill="#DDDDDD"></path>
                <path d="M74.4215666,54.9333333 C73.1415192,54.9333333 72.1014807,53.9132141 72.1014807,52.6580935 C72.1014807,51.4029729 73.1388525,50.3841889 74.4215666,50.3841889 C75.7002806,50.3841889 76.7403192,51.4043082 76.7403192,52.6580935 C76.7403192,53.9132141 75.7029474,54.9333333 74.4202332,54.9333333 L74.4215666,54.9333333 Z M80.6484639,42.0616714 C80.192447,42.7773572 79.2284113,43.7507432 77.7470231,44.9845001 C76.9816614,45.6200718 76.5056437,46.1341371 76.3203036,46.5253608 C76.1362968,46.9125788 76.0496269,47.6069009 76.0669609,48.6083268 L72.7668386,48.6083268 C72.7601717,48.1343185 72.7535048,47.8445727 72.7535048,47.7404244 C72.7535048,46.6695662 72.9295113,45.7909818 73.2828577,45.0993302 C73.6375376,44.4090139 74.3455637,43.6305721 75.4029363,42.770681 C76.4616422,41.9067843 77.0963324,41.34198 77.3030067,41.074933 C77.6216852,40.6516636 77.7830245,40.1843314 77.7830245,39.6782776 C77.7830245,38.9732737 77.499014,38.3697476 76.9349931,37.8623585 C76.3709721,37.3603102 75.6056105,37.1066157 74.6482416,37.1066156 C73.7242074,37.1066156 72.9508455,37.3709921 72.3294891,37.8944041 C71.7094661,38.4191513 71.1747796,39.5767997 71.0481083,40.2938208 C70.9281039,40.9694495 67.67465,41.2551897 67.7146516,39.8852389 C67.7546531,38.513953 68.465346,37.0278368 69.6867246,35.9503024 C70.9067697,34.8714329 72.5108292,34.3333333 74.4935692,34.3333333 C76.5816466,34.3333333 78.2390413,34.8794443 79.4737537,35.9716662 C80.7084661,37.0638882 81.3231558,38.3336963 81.3231558,39.7837611 C81.3234443,40.5926858 81.0885442,41.384197 80.6471305,42.0616714 L80.6484639,42.0616714 Z" id="形状" fill="#D8DDE3"></path>
            </g>
        </g>
    </g>
</svg>