<?xml version="1.0" encoding="UTF-8"?>
<svg width="13px" height="14px" viewBox="0 0 13 14" version="1.1" xmlns="http://www.w3.org/2000/svg" xmlns:xlink="http://www.w3.org/1999/xlink">
    <title>返回</title>
    <g id="pc端" stroke="none" stroke-width="1" fill="none" fill-rule="evenodd">
        <g id="08董监高查询-列表-详情" transform="translate(-1835.000000, -148.000000)" fill="#0B91FF" fill-rule="nonzero">
            <g id="返回" transform="translate(1835.000000, 148.000000)">
                <path d="M2.552,3.966663 L4.24267,5.657333 L3.3,6.600003 L-4.4408921e-16,3.300003 L3.3,-1.11022302e-16 L4.24267,0.942663 L2.552,2.633333 L7.33334,2.633333 C8.74783,2.633333 10.10433,3.195233 11.10453,4.195433 C12.10473,5.195623 12.66663,6.552183 12.66663,7.966663 C12.66663,9.381193 12.10473,10.737693 11.10453,11.737893 C10.10433,12.738093 8.74783,13.299993 7.33334,13.299993 L1.33334,13.299993 L1.33334,11.966693 L7.33334,11.966693 C8.3942,11.966693 9.41163,11.545193 10.16173,10.795093 C10.91193,10.044993 11.33333,9.027533 11.33333,7.966663 C11.33333,6.905803 10.91193,5.888383 10.16173,5.138243 C9.41163,4.388093 8.3942,3.966663 7.33334,3.966663 L2.552,3.966663 Z" id="路径"></path>
            </g>
        </g>
    </g>
</svg>